<?xml version="1.0" encoding="utf-8"?>
<!DOCTYPE svg PUBLIC "-//W3C//DTD SVG 1.1//EN" "http://www.w3.org/Graphics/SVG/1.1/DTD/svg11.dtd" [
	<!ENTITY st0 "fill:#0000000;stroke:#000000;stroke-width:3;stroke-miterlimit:10;">
	<!ENTITY st1 "fill:#608BB0;">
	<!ENTITY st2 "fill:#00000;fill-opacity:0.1;">
	<!ENTITY st3 "fill:#FFFFFF;stroke:#000000;stroke-width:3;stroke-miterlimit:10;">
]>
<svg version="1.1" id="Layer_1" xmlns="http://www.w3.org/2000/svg" xmlns:xlink="http://www.w3.org/1999/xlink" x="0px" y="0px"
	 width="900px" height="600px" viewBox="0 0 900 600" style="enable-background:new 0 0 900 600;" xml:space="preserve">
<path style="&st2;" d="M82.054,229.596l-21.367-14.589c10.874-7.519,49.793,15.727,65.322,2.853l-29.298-45.186
	c15.444-13.117,27.15,4.904,39.675,11.661c11.872-68.302,61.908-73.095,80.444-146.74l37.675,38.832
	c25.98-10.708,29.897-43.585,54.773-50.151c19.198,62.254,75.417,7.385,119.509,24.075c15.129,17.054,57.155,50.236,63.853,86.494
	c19.044-15.822,59.102-24.768,92.443-30.917l-12.971,25.043c23.726,17.333,45.326,12.191,53.677-6.929
	c-9.642,23.565,38.186,26.952,46.086,39.251c30.569-36.147,6.596-92.31,66.757-119.621c34.646-9.779,67.839,4.211,112.117,10.248
	c-11.507,37.912,35.457,84.215,25.907,106.909c-44.945,6.016-57.401,69.612-117.269,47.888
	c-1.903,16.327,10.709,42.542,27.638,62.699c34.304,1.149,26.879-42.705,60.925-41.279c3.609,56.972-8.016,77.73-16.04,133.053
	l31.029,2.571c-61.688,34.495-35.493,153.733-75.383,175.955c-78.562,35.095-182.78,53.492-259.818,30.966
	c-1.729-59.1-80.665-36.576-106.2-54.898c-1.938-18.793,31.619-31.531-2.647-42.197c-54.08,4.473-2.46,55.668-75.797,31.217
	c-25.197-67.897-132.419-87.68-179.64-128.234c-55.787-40.593,32.223-69.596-43.454-95.865c-10.749,32.695-20.596-7.75-40.723-8.466
	C62.654,254.263,68.423,245.146,82.054,229.596z"/>
<polygon style="&st3;" points="279.208,113.106 803.342,109.53 801.839,461.74 289.521,455.648 "/>
<line style="&st1;" x1="598.751" y1="406.537" x2="598.751" y2="411.491"/>
<line style="&st0;" x1="154.149" y1="376.04" x2="155.995" y2="395.076"/>
<ellipse style="&st3;" cx="152.304" cy="344.492" rx="37.401" ry="36.853"/>
<path style="&st3;" d="M244.337,407.312l-8.696,7.783l-18.991,19.705c0,0-2.445-0.132-2.999-1.714
	c-16.993-48.552-62.299-43.98-62.299-43.98s-31.491-5.072-50.214,60.425c0,0-2.823,8.396-2.484,12.396
	c0,0,8.226,18.978,26.936,37.752c-0.202,5.836-0.407,10.538-0.601,12.941c-0.864,10.711,33.547,2.317,42.401,2.872
	c8.854,0.556,26.382-4.674,27.97-4.486l-1.851-67.364l0.857-2.558c0,0,2.104-0.286,3.626,4.212c0,0,6.617,12.177,10.567,14.118
	c0,0,6.742,0.612,14.985-9.504c8.243-10.114,30.243-33.246,30.243-33.246L244.337,407.312z M120.982,477.21l-7.371-14.852
	c0,0,4.817-22.011,11.378-22.429c0,0,1.997,0.69,1.956,5.715c0,0-0.384,19.828-0.878,38.182L120.982,477.21z"/>
<g>
	<path d="M320.048,213.854c-0.076-10.367-0.134-20.818-0.171-31.352c-0.039-10.535-0.077-20.985-0.115-31.352
		c4.428-0.055,8.388-0.293,11.882-0.711c3.492-0.418,6.155,2.717,7.988,9.406c0.304,2.841,0.372,6.507,0.2,10.993
		c-0.172,4.488-1.633,7.232-4.38,8.235c0,0.167,0,0.334,0,0.502s0,0.334,0,0.502c1.526,0.334,2.691,1.366,3.493,3.092
		c0.801,1.729,1.364,3.68,1.688,5.854c0.325,2.173,0.477,4.375,0.459,6.604c-0.02,2.23-0.049,4.012-0.086,5.351
		c-0.116,2.731-0.65,5.212-1.604,7.44c-0.954,2.23-2.691,3.846-5.211,4.85c-2.366,0.223-4.743,0.516-7.128,0.877
		C324.677,214.51,322.338,214.412,320.048,213.854z M326.061,174.727c3.625-0.501,6.002-1.184,7.128-2.048
		c1.126-0.864,1.231-4.444,0.314-10.743c-0.649-1.784-1.67-2.718-3.063-2.801s-2.968-0.18-4.724-0.293
		c0.038,2.676,0.086,5.338,0.144,7.984C325.917,169.473,325.983,172.107,326.061,174.727z M326.061,205.577
		c4.466,0.056,7.251-1.004,8.359-3.178c1.107-2.174,1.412-6.104,0.917-11.788c-1.26-2.897-2.53-4.751-3.808-5.56
		c-1.28-0.807-3.103-1.157-5.468-1.045c-0.115,5.407-0.172,9.016-0.172,10.827C325.889,196.645,325.945,200.226,326.061,205.577z"/>
	<path d="M348.161,213.687c-0.115-10.423-0.2-20.845-0.258-31.269c-0.057-10.421,0.066-20.845,0.372-31.268
		c0.802,0,1.622-0.028,2.463-0.084c0.838-0.054,1.697-0.083,2.575-0.083c0.076,0.223,0.152,0.432,0.229,0.627
		c0.076,0.195,0.173,0.376,0.287,0.542c-0.421,8.528-0.592,17.294-0.516,26.295c0.076,9.002,0.324,17.737,0.746,26.209
		c3.549,0.167,5.802,0.293,6.756,0.376c0.955,0.084,2.52,0.292,4.695,0.627c-0.114,1.393-0.192,2.8-0.228,4.222
		c-0.04,1.42-0.078,2.829-0.115,4.221c-2.94,0.168-5.783,0.225-8.532,0.168C353.887,214.216,351.062,214.021,348.161,213.687z"/>
	<path d="M368.831,214.271c1.182-10.589,2.442-21.208,3.778-31.854c1.336-10.646,2.996-21.152,4.982-31.519
		c1.067,0,2.165-0.028,3.292-0.083c1.125-0.055,2.261-0.084,3.407-0.084c0.19,0.836,0.382,1.785,0.574,2.843
		c0.189,1.061,0.58,3.567,1.173,7.524c0.591,3.958,1.469,9.99,2.634,18.1c1.164,8.109,2.834,19.635,5.009,34.572
		c-1.03,0-2.032,0-3.005,0s-1.957,0-2.949,0c-0.61-2.563-1.021-4.362-1.23-5.394c-0.211-1.03-0.602-3.33-1.174-6.897
		c-2.29,0.167-3.817,0.084-4.581-0.25c-0.764-0.334-2.061-0.334-3.894,0c-0.687,3.344-1.087,5.727-1.201,7.147
		c-0.116,1.422-0.286,3.387-0.516,5.895c-2.444-0.111-3.932-0.168-4.465-0.168C370.128,214.104,369.518,214.161,368.831,214.271z
		 M377.592,193.788c1.067,0,2.156,0,3.263,0c1.108,0,2.233,0,3.379,0c-0.307-4.348-0.765-9.46-1.375-15.341
		c-0.612-5.88-1.26-10.995-1.947-15.342c-0.191,1.059-0.344,2.119-0.458,3.177s-0.278,2.632-0.487,4.723
		c-0.21,2.09-0.496,4.92-0.858,8.486C378.745,183.06,378.24,187.825,377.592,193.788z"/>
	<path d="M414.179,213.854c-0.076-10.367-0.134-20.818-0.171-31.352c-0.04-10.535-0.077-20.985-0.116-31.352
		c4.429-0.055,8.389-0.293,11.882-0.711c3.492-0.418,6.155,2.717,7.988,9.406c0.304,2.841,0.371,6.507,0.2,10.993
		c-0.172,4.488-1.632,7.232-4.38,8.235c0,0.167,0,0.334,0,0.502s0,0.334,0,0.502c1.526,0.334,2.691,1.366,3.493,3.092
		c0.801,1.729,1.364,3.68,1.688,5.854c0.324,2.173,0.477,4.375,0.458,6.604c-0.02,2.23-0.049,4.012-0.086,5.351
		c-0.115,2.731-0.65,5.212-1.603,7.44c-0.955,2.23-2.691,3.846-5.211,4.85c-2.366,0.223-4.743,0.516-7.128,0.877
		C418.808,214.51,416.469,214.412,414.179,213.854z M420.192,174.727c3.625-0.501,6.001-1.184,7.129-2.048
		c1.125-0.864,1.23-4.444,0.314-10.743c-0.649-1.784-1.671-2.718-3.063-2.801s-2.969-0.18-4.725-0.293
		c0.038,2.676,0.087,5.338,0.144,7.984C420.049,169.473,420.115,172.107,420.192,174.727z M420.192,205.577
		c4.465,0.056,7.251-1.004,8.359-3.178c1.106-2.174,1.412-6.104,0.917-11.788c-1.26-2.897-2.53-4.751-3.808-5.56
		c-1.28-0.807-3.103-1.157-5.468-1.045c-0.116,5.407-0.172,9.016-0.172,10.827C420.02,196.645,420.076,200.226,420.192,205.577z"/>
	<path d="M442.293,213.687c-0.116-10.423-0.202-20.845-0.258-31.269c-0.059-10.421,0.065-20.845,0.372-31.268
		c0.802,0,1.622-0.028,2.462-0.084c0.84-0.054,1.697-0.083,2.577-0.083c0.076,0.223,0.151,0.432,0.229,0.627
		c0.075,0.195,0.172,0.376,0.286,0.542c-0.42,8.528-0.591,17.294-0.515,26.295c0.076,9.002,0.325,17.737,0.745,26.209
		c3.55,0.167,5.801,0.293,6.756,0.376c0.954,0.084,2.52,0.292,4.694,0.627c-0.114,1.393-0.19,2.8-0.228,4.222
		c-0.04,1.42-0.078,2.829-0.115,4.221c-2.939,0.168-5.783,0.225-8.532,0.168C448.018,214.216,445.192,214.021,442.293,213.687z"/>
	<path d="M462.962,214.271c1.183-10.589,2.442-21.208,3.778-31.854c1.336-10.646,2.997-21.152,4.982-31.519
		c1.067,0,2.165-0.028,3.292-0.083c1.126-0.055,2.262-0.084,3.407-0.084c0.189,0.836,0.381,1.785,0.572,2.843
		c0.19,1.061,0.582,3.567,1.174,7.524c0.592,3.958,1.469,9.99,2.635,18.1c1.163,8.109,2.834,19.635,5.008,34.572
		c-1.029,0-2.03,0-3.005,0c-0.973,0-1.956,0-2.948,0c-0.611-2.563-1.022-4.362-1.232-5.394c-0.209-1.03-0.6-3.33-1.173-6.897
		c-2.291,0.167-3.818,0.084-4.581-0.25c-0.764-0.334-2.061-0.334-3.893,0c-0.688,3.344-1.088,5.727-1.202,7.147
		c-0.116,1.422-0.287,3.387-0.516,5.895c-2.444-0.111-3.932-0.168-4.466-0.168C464.26,214.104,463.648,214.161,462.962,214.271z
		 M471.723,193.788c1.067,0,2.156,0,3.263,0c1.108,0,2.233,0,3.38,0c-0.308-4.348-0.765-9.46-1.374-15.341
		c-0.612-5.88-1.261-10.995-1.947-15.342c-0.191,1.059-0.344,2.119-0.459,3.177c-0.114,1.059-0.277,2.632-0.487,4.723
		s-0.495,4.92-0.858,8.486C472.876,183.06,472.37,187.825,471.723,193.788z"/>
	<path d="M508.31,213.854c-0.076-10.367-0.134-20.818-0.172-31.352c-0.038-10.535-0.076-20.985-0.114-31.352
		c4.428-0.055,8.389-0.293,11.883-0.711c3.493-0.418,6.155,2.717,7.985,9.406c0.304,2.841,0.375,6.507,0.203,10.993
		c-0.172,4.488-1.632,7.232-4.381,8.235c0,0.167,0,0.334,0,0.502s0,0.334,0,0.502c1.527,0.334,2.691,1.366,3.493,3.092
		c0.801,1.729,1.364,3.68,1.688,5.854c0.324,2.173,0.477,4.375,0.457,6.604c-0.021,2.23-0.046,4.012-0.086,5.351
		c-0.112,2.731-0.65,5.212-1.603,7.44c-0.953,2.23-2.692,3.846-5.213,4.85c-2.367,0.223-4.739,0.516-7.129,0.877
		C512.938,214.51,510.602,214.412,508.31,213.854z M514.323,174.727c3.626-0.501,6-1.184,7.129-2.048
		c1.126-0.864,1.228-4.444,0.315-10.743c-0.649-1.784-1.674-2.718-3.062-2.801c-1.395-0.083-2.972-0.18-4.727-0.293
		c0.037,2.676,0.086,5.338,0.144,7.984C514.18,169.473,514.247,172.107,514.323,174.727z M514.323,205.577
		c4.468,0.056,7.252-1.004,8.356-3.178c1.11-2.174,1.415-6.104,0.917-11.788c-1.256-2.897-2.529-4.751-3.808-5.56
		c-1.277-0.807-3.102-1.157-5.466-1.045c-0.116,5.407-0.172,9.016-0.172,10.827C514.151,196.645,514.207,200.226,514.323,205.577z"
		/>
	<path d="M536.423,213.687c-0.115-10.423-0.201-20.845-0.256-31.269c-0.059-10.421,0.065-20.845,0.372-31.268
		c0.801,0,1.62-0.028,2.461-0.084c0.84-0.054,1.698-0.083,2.576-0.083c0.076,0.223,0.152,0.432,0.23,0.627
		c0.075,0.195,0.17,0.376,0.284,0.542c-0.419,8.528-0.592,17.294-0.515,26.295c0.076,9.002,0.324,17.737,0.745,26.209
		c3.548,0.167,5.801,0.293,6.757,0.376c0.952,0.084,2.519,0.292,4.693,0.627c-0.113,1.393-0.189,2.8-0.228,4.222
		c-0.038,1.42-0.079,2.829-0.114,4.221c-2.939,0.168-5.784,0.225-8.533,0.168C542.149,214.216,539.324,214.021,536.423,213.687z"/>
	<path d="M557.093,214.271c1.181-10.589,2.441-21.208,3.778-31.854c1.335-10.646,2.995-21.152,4.98-31.519
		c1.07,0,2.167-0.028,3.294-0.083c1.125-0.055,2.26-0.084,3.406-0.084c0.189,0.836,0.38,1.785,0.573,2.843
		c0.189,1.061,0.579,3.567,1.173,7.524c0.591,3.958,1.468,9.99,2.634,18.1c1.164,8.109,2.835,19.635,5.01,34.572
		c-1.029,0-2.034,0-3.007,0c-0.974,0-1.954,0-2.947,0c-0.611-2.563-1.022-4.362-1.23-5.394c-0.21-1.03-0.604-3.33-1.176-6.897
		c-2.289,0.167-3.815,0.084-4.578-0.25c-0.766-0.334-2.063-0.334-3.895,0c-0.687,3.344-1.087,5.727-1.203,7.147
		c-0.115,1.422-0.286,3.387-0.515,5.895c-2.444-0.111-3.933-0.168-4.468-0.168C558.389,214.104,557.779,214.161,557.093,214.271z
		 M565.852,193.788c1.07,0,2.157,0,3.266,0c1.104,0,2.233,0,3.376,0c-0.304-4.348-0.764-9.46-1.374-15.341
		c-0.611-5.88-1.26-10.995-1.947-15.342c-0.189,1.059-0.341,2.119-0.456,3.177c-0.116,1.059-0.279,2.632-0.486,4.723
		c-0.211,2.09-0.497,4.92-0.859,8.486C567.008,183.06,566.501,187.825,565.852,193.788z"/>
	<path d="M602.439,213.854c-0.075-10.367-0.135-20.818-0.172-31.352c-0.038-10.535-0.075-20.985-0.115-31.352
		c4.43-0.055,8.39-0.293,11.882-0.711c3.494-0.418,6.156,2.717,7.989,9.406c0.304,2.841,0.372,6.507,0.2,10.993
		c-0.173,4.488-1.634,7.232-4.382,8.235c0,0.167,0,0.334,0,0.502s0,0.334,0,0.502c1.527,0.334,2.693,1.366,3.494,3.092
		c0.801,1.729,1.363,3.68,1.689,5.854c0.324,2.173,0.477,4.375,0.458,6.604c-0.021,2.23-0.048,4.012-0.087,5.351
		c-0.114,2.731-0.648,5.212-1.604,7.44c-0.953,2.23-2.689,3.846-5.209,4.85c-2.368,0.223-4.743,0.516-7.129,0.877
		C607.068,214.51,604.731,214.412,602.439,213.854z M608.453,174.727c3.625-0.501,6-1.184,7.129-2.048
		c1.125-0.864,1.229-4.444,0.314-10.743c-0.649-1.784-1.672-2.718-3.062-2.801c-1.395-0.083-2.969-0.18-4.726-0.293
		c0.038,2.676,0.086,5.338,0.144,7.984C608.309,169.473,608.374,172.107,608.453,174.727z M608.453,205.577
		c4.466,0.056,7.253-1.004,8.358-3.178c1.107-2.174,1.411-6.104,0.918-11.788c-1.261-2.897-2.531-4.751-3.808-5.56
		c-1.281-0.807-3.104-1.157-5.469-1.045c-0.115,5.407-0.173,9.016-0.173,10.827C608.28,196.645,608.338,200.226,608.453,205.577z"/>
	<path d="M630.553,213.687c-0.113-10.423-0.199-20.845-0.255-31.269c-0.06-10.421,0.065-20.845,0.372-31.268
		c0.801,0,1.62-0.028,2.461-0.084c0.84-0.054,1.699-0.083,2.576-0.083c0.076,0.223,0.151,0.432,0.23,0.627
		c0.077,0.195,0.17,0.376,0.285,0.542c-0.42,8.528-0.592,17.294-0.516,26.295c0.076,9.002,0.325,17.737,0.745,26.209
		c3.55,0.167,5.801,0.293,6.756,0.376c0.954,0.084,2.521,0.292,4.694,0.627c-0.112,1.393-0.189,2.8-0.228,4.222
		c-0.037,1.42-0.078,2.829-0.114,4.221c-2.94,0.168-5.784,0.225-8.533,0.168C636.279,214.216,633.456,214.021,630.553,213.687z"/>
	<path d="M651.224,214.271c1.182-10.589,2.44-21.208,3.777-31.854c1.336-10.646,2.997-21.152,4.981-31.519
		c1.07,0,2.168-0.028,3.293-0.083c1.126-0.055,2.262-0.084,3.407-0.084c0.19,0.836,0.381,1.785,0.573,2.843
		c0.19,1.061,0.58,3.567,1.174,7.524c0.591,3.958,1.467,9.99,2.634,18.1c1.163,8.109,2.835,19.635,5.009,34.572
		c-1.029,0-2.032,0-3.006,0c-0.975,0-1.956,0-2.949,0c-0.61-2.563-1.021-4.362-1.229-5.394c-0.21-1.03-0.604-3.33-1.176-6.897
		c-2.29,0.167-3.814,0.084-4.578-0.25c-0.766-0.334-2.063-0.334-3.894,0c-0.688,3.344-1.088,5.727-1.204,7.147
		c-0.114,1.422-0.287,3.387-0.515,5.895c-2.444-0.111-3.933-0.168-4.467-0.168C652.52,214.104,651.912,214.161,651.224,214.271z
		 M659.982,193.788c1.07,0,2.158,0,3.266,0c1.105,0,2.233,0,3.377,0c-0.305-4.348-0.764-9.46-1.375-15.341
		c-0.61-5.88-1.26-10.995-1.946-15.342c-0.19,1.059-0.343,2.119-0.457,3.177c-0.116,1.059-0.278,2.632-0.486,4.723
		c-0.21,2.09-0.497,4.92-0.858,8.486C661.139,183.06,660.631,187.825,659.982,193.788z"/>
	<path d="M696.57,213.854c-0.075-10.367-0.134-20.818-0.172-31.352c-0.037-10.535-0.076-20.985-0.113-31.352
		c4.428-0.055,8.388-0.293,11.881-0.711c3.493-0.418,6.155,2.717,7.988,9.406c0.303,2.841,0.373,6.507,0.2,10.993
		c-0.172,4.488-1.632,7.232-4.381,8.235c0,0.167,0,0.334,0,0.502s0,0.334,0,0.502c1.526,0.334,2.691,1.366,3.492,3.092
		c0.803,1.729,1.365,3.68,1.689,5.854c0.324,2.173,0.477,4.375,0.46,6.604c-0.021,2.23-0.049,4.012-0.087,5.351
		c-0.114,2.731-0.649,5.212-1.604,7.44c-0.953,2.23-2.689,3.846-5.21,4.85c-2.367,0.223-4.743,0.516-7.128,0.877
		C701.2,214.51,698.863,214.412,696.57,213.854z M702.583,174.727c3.626-0.501,6.002-1.184,7.129-2.048
		c1.127-0.864,1.23-4.444,0.314-10.743c-0.648-1.784-1.671-2.718-3.062-2.801c-1.394-0.083-2.968-0.18-4.724-0.293
		c0.037,2.676,0.086,5.338,0.144,7.984C702.439,169.473,702.506,172.107,702.583,174.727z M702.583,205.577
		c4.467,0.056,7.254-1.004,8.359-3.178c1.108-2.174,1.412-6.104,0.918-11.788c-1.261-2.897-2.53-4.751-3.809-5.56
		c-1.28-0.807-3.103-1.157-5.469-1.045c-0.112,5.407-0.172,9.016-0.172,10.827C702.411,196.645,702.471,200.226,702.583,205.577z"/>
	<path d="M724.685,213.687c-0.114-10.423-0.2-20.845-0.256-31.269c-0.059-10.421,0.065-20.845,0.373-31.268
		c0.801,0,1.619-0.028,2.462-0.084c0.839-0.054,1.697-0.083,2.575-0.083c0.076,0.223,0.152,0.432,0.229,0.627
		c0.077,0.195,0.171,0.376,0.284,0.542c-0.419,8.528-0.591,17.294-0.514,26.295c0.076,9.002,0.324,17.737,0.745,26.209
		c3.55,0.167,5.8,0.293,6.756,0.376c0.953,0.084,2.52,0.292,4.694,0.627c-0.114,1.393-0.19,2.8-0.228,4.222
		c-0.039,1.42-0.08,2.829-0.115,4.221c-2.939,0.168-5.784,0.225-8.532,0.168C730.411,214.216,727.588,214.021,724.685,213.687z"/>
	<path d="M745.355,214.271c1.182-10.589,2.441-21.208,3.777-31.854c1.336-10.646,2.997-21.152,4.981-31.519
		c1.069,0,2.167-0.028,3.293-0.083c1.125-0.055,2.261-0.084,3.408-0.084c0.188,0.836,0.379,1.785,0.571,2.843
		c0.189,1.061,0.581,3.567,1.174,7.524c0.591,3.958,1.468,9.99,2.635,18.1c1.162,8.109,2.833,19.635,5.009,34.572
		c-1.03,0-2.033,0-3.007,0s-1.955,0-2.948,0c-0.611-2.563-1.021-4.362-1.229-5.394c-0.211-1.03-0.604-3.33-1.176-6.897
		c-2.289,0.167-3.816,0.084-4.579-0.25c-0.765-0.334-2.063-0.334-3.893,0c-0.688,3.344-1.088,5.727-1.205,7.147
		c-0.115,1.422-0.287,3.387-0.515,5.895c-2.444-0.111-3.932-0.168-4.467-0.168S746.042,214.161,745.355,214.271z M754.114,193.788
		c1.069,0,2.157,0,3.265,0c1.106,0,2.233,0,3.377,0c-0.305-4.348-0.764-9.46-1.374-15.341c-0.61-5.88-1.261-10.995-1.947-15.342
		c-0.189,1.059-0.342,2.119-0.456,3.177c-0.117,1.059-0.279,2.632-0.487,4.723c-0.21,2.09-0.496,4.92-0.859,8.486
		C755.271,183.06,754.763,187.825,754.114,193.788z"/>
	<path d="M320.048,314.182c-0.076-10.367-0.134-20.818-0.171-31.353c-0.039-10.535-0.077-20.985-0.115-31.352
		c4.428-0.055,8.388-0.293,11.882-0.711c3.492-0.418,6.155,2.718,7.988,9.407c0.304,2.842,0.372,6.507,0.2,10.993
		c-0.172,4.488-1.633,7.232-4.38,8.235c0,0.167,0,0.334,0,0.502c0,0.167,0,0.335,0,0.502c1.526,0.334,2.691,1.367,3.493,3.093
		c0.801,1.729,1.364,3.679,1.688,5.853c0.325,2.174,0.477,4.375,0.459,6.604c-0.02,2.231-0.049,4.013-0.086,5.352
		c-0.116,2.731-0.65,5.212-1.604,7.439c-0.954,2.231-2.691,3.847-5.211,4.85c-2.366,0.224-4.743,0.516-7.128,0.878
		C324.677,314.836,322.338,314.738,320.048,314.182z M326.061,275.054c3.625-0.501,6.002-1.184,7.128-2.048
		c1.126-0.864,1.231-4.445,0.314-10.744c-0.649-1.783-1.67-2.718-3.063-2.801s-2.968-0.18-4.724-0.292
		c0.038,2.675,0.086,5.337,0.144,7.984C325.917,269.8,325.983,272.434,326.061,275.054z M326.061,305.903
		c4.466,0.057,7.251-1.003,8.359-3.177c1.107-2.174,1.412-6.104,0.917-11.789c-1.26-2.897-2.53-4.752-3.808-5.559
		c-1.28-0.807-3.103-1.157-5.468-1.045c-0.115,5.407-0.172,9.016-0.172,10.827S325.945,300.552,326.061,305.903z"/>
	<path d="M348.161,314.014c-0.115-10.423-0.2-20.846-0.258-31.269c-0.057-10.421,0.066-20.846,0.372-31.269
		c0.802,0,1.622-0.028,2.463-0.083c0.838-0.054,1.697-0.084,2.575-0.084c0.076,0.224,0.152,0.432,0.229,0.627
		c0.076,0.196,0.173,0.377,0.287,0.543c-0.421,8.528-0.592,17.294-0.516,26.295c0.076,9.001,0.324,17.737,0.746,26.209
		c3.549,0.168,5.802,0.293,6.756,0.377c0.955,0.084,2.52,0.293,4.695,0.627c-0.114,1.394-0.192,2.8-0.228,4.222
		c-0.04,1.422-0.078,2.83-0.115,4.221c-2.94,0.168-5.783,0.225-8.532,0.168C353.887,314.543,351.062,314.349,348.161,314.014z"/>
	<path d="M368.831,314.598c1.182-10.589,2.442-21.207,3.778-31.853c1.336-10.646,2.996-21.152,4.982-31.52
		c1.067,0,2.165-0.028,3.292-0.083c1.125-0.055,2.261-0.084,3.407-0.084c0.19,0.837,0.382,1.785,0.574,2.843
		c0.189,1.06,0.58,3.566,1.173,7.523c0.591,3.959,1.469,9.991,2.634,18.101c1.164,8.109,2.834,19.635,5.009,34.572
		c-1.03,0-2.032,0-3.005,0s-1.957,0-2.949,0c-0.61-2.562-1.021-4.362-1.23-5.394c-0.211-1.031-0.602-3.33-1.174-6.896
		c-2.29,0.167-3.817,0.083-4.581-0.252c-0.764-0.334-2.061-0.334-3.894,0c-0.687,3.345-1.087,5.728-1.201,7.148
		c-0.116,1.422-0.286,3.387-0.516,5.894c-2.444-0.11-3.932-0.168-4.465-0.168C370.128,314.43,369.518,314.487,368.831,314.598z
		 M377.592,294.115c1.067,0,2.156,0,3.263,0c1.108,0,2.233,0,3.379,0c-0.307-4.348-0.765-9.46-1.375-15.341
		c-0.612-5.88-1.26-10.995-1.947-15.342c-0.191,1.06-0.344,2.119-0.458,3.178s-0.278,2.632-0.487,4.723
		c-0.21,2.09-0.496,4.92-0.858,8.486C378.745,283.386,378.24,288.152,377.592,294.115z"/>
	<path d="M414.179,314.182c-0.076-10.367-0.134-20.818-0.171-31.353c-0.04-10.535-0.077-20.985-0.116-31.352
		c4.429-0.055,8.389-0.293,11.882-0.711c3.492-0.418,6.155,2.718,7.988,9.407c0.304,2.842,0.371,6.507,0.2,10.993
		c-0.172,4.488-1.632,7.232-4.38,8.235c0,0.167,0,0.334,0,0.502c0,0.167,0,0.335,0,0.502c1.526,0.334,2.691,1.367,3.493,3.093
		c0.801,1.729,1.364,3.679,1.688,5.853c0.324,2.174,0.477,4.375,0.458,6.604c-0.02,2.231-0.049,4.013-0.086,5.352
		c-0.115,2.731-0.65,5.212-1.603,7.439c-0.955,2.231-2.691,3.847-5.211,4.85c-2.366,0.224-4.743,0.516-7.128,0.878
		C418.808,314.836,416.469,314.738,414.179,314.182z M420.192,275.054c3.625-0.501,6.001-1.184,7.129-2.048
		c1.125-0.864,1.23-4.445,0.314-10.744c-0.649-1.783-1.671-2.718-3.063-2.801s-2.969-0.18-4.725-0.292
		c0.038,2.675,0.087,5.337,0.144,7.984C420.049,269.8,420.115,272.434,420.192,275.054z M420.192,305.903
		c4.465,0.057,7.251-1.003,8.359-3.177c1.106-2.174,1.412-6.104,0.917-11.789c-1.26-2.897-2.53-4.752-3.808-5.559
		c-1.28-0.807-3.103-1.157-5.468-1.045c-0.116,5.407-0.172,9.016-0.172,10.827S420.076,300.552,420.192,305.903z"/>
	<path d="M442.293,314.014c-0.116-10.423-0.202-20.846-0.258-31.269c-0.059-10.421,0.065-20.846,0.372-31.269
		c0.802,0,1.622-0.028,2.462-0.083c0.84-0.054,1.697-0.084,2.577-0.084c0.076,0.224,0.151,0.432,0.229,0.627
		c0.075,0.196,0.172,0.377,0.286,0.543c-0.42,8.528-0.591,17.294-0.515,26.295c0.076,9.001,0.325,17.737,0.745,26.209
		c3.55,0.168,5.801,0.293,6.756,0.377c0.954,0.084,2.52,0.293,4.694,0.627c-0.114,1.394-0.19,2.8-0.228,4.222
		c-0.04,1.422-0.078,2.83-0.115,4.221c-2.939,0.168-5.783,0.225-8.532,0.168C448.018,314.543,445.192,314.349,442.293,314.014z"/>
	<path d="M462.962,314.598c1.183-10.589,2.442-21.207,3.778-31.853s2.997-21.152,4.982-31.52c1.067,0,2.165-0.028,3.292-0.083
		c1.126-0.055,2.262-0.084,3.407-0.084c0.189,0.837,0.381,1.785,0.572,2.843c0.19,1.06,0.582,3.566,1.174,7.523
		c0.592,3.959,1.469,9.991,2.635,18.101c1.163,8.109,2.834,19.635,5.008,34.572c-1.029,0-2.03,0-3.005,0c-0.973,0-1.956,0-2.948,0
		c-0.611-2.562-1.022-4.362-1.232-5.394c-0.209-1.031-0.6-3.33-1.173-6.896c-2.291,0.167-3.818,0.083-4.581-0.252
		c-0.764-0.334-2.061-0.334-3.893,0c-0.688,3.345-1.088,5.728-1.202,7.148c-0.116,1.422-0.287,3.387-0.516,5.894
		c-2.444-0.11-3.932-0.168-4.466-0.168C464.26,314.43,463.648,314.487,462.962,314.598z M471.723,294.115c1.067,0,2.156,0,3.263,0
		c1.108,0,2.233,0,3.38,0c-0.308-4.348-0.765-9.46-1.374-15.341c-0.612-5.88-1.261-10.995-1.947-15.342
		c-0.191,1.06-0.344,2.119-0.459,3.178c-0.114,1.059-0.277,2.632-0.487,4.723s-0.495,4.92-0.858,8.486
		C472.876,283.386,472.37,288.152,471.723,294.115z"/>
	<path d="M508.31,314.182c-0.076-10.367-0.134-20.818-0.172-31.353s-0.076-20.985-0.114-31.352
		c4.428-0.055,8.389-0.293,11.883-0.711c3.493-0.418,6.155,2.718,7.985,9.407c0.304,2.842,0.375,6.507,0.203,10.993
		c-0.172,4.488-1.632,7.232-4.381,8.235c0,0.167,0,0.334,0,0.502c0,0.167,0,0.335,0,0.502c1.527,0.334,2.691,1.367,3.493,3.093
		c0.801,1.729,1.364,3.679,1.688,5.853s0.477,4.375,0.457,6.604c-0.021,2.231-0.046,4.013-0.086,5.352
		c-0.112,2.731-0.65,5.212-1.603,7.439c-0.953,2.231-2.692,3.847-5.213,4.85c-2.367,0.224-4.739,0.516-7.129,0.878
		C512.938,314.836,510.602,314.738,508.31,314.182z M514.323,275.054c3.626-0.501,6-1.184,7.129-2.048
		c1.126-0.864,1.228-4.445,0.315-10.744c-0.649-1.783-1.674-2.718-3.062-2.801c-1.395-0.083-2.972-0.18-4.727-0.292
		c0.037,2.675,0.086,5.337,0.144,7.984C514.18,269.8,514.247,272.434,514.323,275.054z M514.323,305.903
		c4.468,0.057,7.252-1.003,8.356-3.177c1.11-2.174,1.415-6.104,0.917-11.789c-1.256-2.897-2.529-4.752-3.808-5.559
		c-1.277-0.807-3.102-1.157-5.466-1.045c-0.116,5.407-0.172,9.016-0.172,10.827S514.207,300.552,514.323,305.903z"/>
	<path d="M536.423,314.014c-0.115-10.423-0.201-20.846-0.256-31.269c-0.059-10.421,0.065-20.846,0.372-31.269
		c0.801,0,1.62-0.028,2.461-0.083c0.84-0.054,1.698-0.084,2.576-0.084c0.076,0.224,0.152,0.432,0.23,0.627
		c0.075,0.196,0.17,0.377,0.284,0.543c-0.419,8.528-0.592,17.294-0.515,26.295c0.076,9.001,0.324,17.737,0.745,26.209
		c3.548,0.168,5.801,0.293,6.757,0.377c0.952,0.084,2.519,0.293,4.693,0.627c-0.113,1.394-0.189,2.8-0.228,4.222
		s-0.079,2.83-0.114,4.221c-2.939,0.168-5.784,0.225-8.533,0.168C542.149,314.543,539.324,314.349,536.423,314.014z"/>
	<path d="M557.093,314.598c1.181-10.589,2.441-21.207,3.778-31.853c1.335-10.646,2.995-21.152,4.98-31.52
		c1.07,0,2.167-0.028,3.294-0.083c1.125-0.055,2.26-0.084,3.406-0.084c0.189,0.837,0.38,1.785,0.573,2.843
		c0.189,1.06,0.579,3.566,1.173,7.523c0.591,3.959,1.468,9.991,2.634,18.101c1.164,8.109,2.835,19.635,5.01,34.572
		c-1.029,0-2.034,0-3.007,0c-0.974,0-1.954,0-2.947,0c-0.611-2.562-1.022-4.362-1.23-5.394c-0.21-1.031-0.604-3.33-1.176-6.896
		c-2.289,0.167-3.815,0.083-4.578-0.252c-0.766-0.334-2.063-0.334-3.895,0c-0.687,3.345-1.087,5.728-1.203,7.148
		c-0.115,1.422-0.286,3.387-0.515,5.894c-2.444-0.11-3.933-0.168-4.468-0.168C558.389,314.43,557.779,314.487,557.093,314.598z
		 M565.852,294.115c1.07,0,2.157,0,3.266,0c1.104,0,2.233,0,3.376,0c-0.304-4.348-0.764-9.46-1.374-15.341
		c-0.611-5.88-1.26-10.995-1.947-15.342c-0.189,1.06-0.341,2.119-0.456,3.178c-0.116,1.059-0.279,2.632-0.486,4.723
		c-0.211,2.09-0.497,4.92-0.859,8.486C567.008,283.386,566.501,288.152,565.852,294.115z"/>
	<path d="M602.439,314.182c-0.075-10.367-0.135-20.818-0.172-31.353c-0.038-10.535-0.075-20.985-0.115-31.352
		c4.43-0.055,8.39-0.293,11.882-0.711c3.494-0.418,6.156,2.718,7.989,9.407c0.304,2.842,0.372,6.507,0.2,10.993
		c-0.173,4.488-1.634,7.232-4.382,8.235c0,0.167,0,0.334,0,0.502c0,0.167,0,0.335,0,0.502c1.527,0.334,2.693,1.367,3.494,3.093
		c0.801,1.729,1.363,3.679,1.689,5.853c0.324,2.174,0.477,4.375,0.458,6.604c-0.021,2.231-0.048,4.013-0.087,5.352
		c-0.114,2.731-0.648,5.212-1.604,7.439c-0.953,2.231-2.689,3.847-5.209,4.85c-2.368,0.224-4.743,0.516-7.129,0.878
		C607.068,314.836,604.731,314.738,602.439,314.182z M608.453,275.054c3.625-0.501,6-1.184,7.129-2.048
		c1.125-0.864,1.229-4.445,0.314-10.744c-0.649-1.783-1.672-2.718-3.062-2.801c-1.395-0.083-2.969-0.18-4.726-0.292
		c0.038,2.675,0.086,5.337,0.144,7.984C608.309,269.8,608.374,272.434,608.453,275.054z M608.453,305.903
		c4.466,0.057,7.253-1.003,8.358-3.177c1.107-2.174,1.411-6.104,0.918-11.789c-1.261-2.897-2.531-4.752-3.808-5.559
		c-1.281-0.807-3.104-1.157-5.469-1.045c-0.115,5.407-0.173,9.016-0.173,10.827S608.338,300.552,608.453,305.903z"/>
	<path d="M630.553,314.014c-0.113-10.423-0.199-20.846-0.255-31.269c-0.06-10.421,0.065-20.846,0.372-31.269
		c0.801,0,1.62-0.028,2.461-0.083c0.84-0.054,1.699-0.084,2.576-0.084c0.076,0.224,0.151,0.432,0.23,0.627
		c0.077,0.196,0.17,0.377,0.285,0.543c-0.42,8.528-0.592,17.294-0.516,26.295c0.076,9.001,0.325,17.737,0.745,26.209
		c3.55,0.168,5.801,0.293,6.756,0.377c0.954,0.084,2.521,0.293,4.694,0.627c-0.112,1.394-0.189,2.8-0.228,4.222
		c-0.037,1.422-0.078,2.83-0.114,4.221c-2.94,0.168-5.784,0.225-8.533,0.168C636.279,314.543,633.456,314.349,630.553,314.014z"/>
	<path d="M651.224,314.598c1.182-10.589,2.44-21.207,3.777-31.853c1.336-10.646,2.997-21.152,4.981-31.52
		c1.07,0,2.168-0.028,3.293-0.083c1.126-0.055,2.262-0.084,3.407-0.084c0.19,0.837,0.381,1.785,0.573,2.843
		c0.19,1.06,0.58,3.566,1.174,7.523c0.591,3.959,1.467,9.991,2.634,18.101c1.163,8.109,2.835,19.635,5.009,34.572
		c-1.029,0-2.032,0-3.006,0c-0.975,0-1.956,0-2.949,0c-0.61-2.562-1.021-4.362-1.229-5.394c-0.21-1.031-0.604-3.33-1.176-6.896
		c-2.29,0.167-3.814,0.083-4.578-0.252c-0.766-0.334-2.063-0.334-3.894,0c-0.688,3.345-1.088,5.728-1.204,7.148
		c-0.114,1.422-0.287,3.387-0.515,5.894c-2.444-0.11-3.933-0.168-4.467-0.168C652.52,314.43,651.912,314.487,651.224,314.598z
		 M659.982,294.115c1.07,0,2.158,0,3.266,0c1.105,0,2.233,0,3.377,0c-0.305-4.348-0.764-9.46-1.375-15.341
		c-0.61-5.88-1.26-10.995-1.946-15.342c-0.19,1.06-0.343,2.119-0.457,3.178c-0.116,1.059-0.278,2.632-0.486,4.723
		c-0.21,2.09-0.497,4.92-0.858,8.486C661.139,283.386,660.631,288.152,659.982,294.115z"/>
	<path d="M696.57,314.182c-0.075-10.367-0.134-20.818-0.172-31.353c-0.037-10.535-0.076-20.985-0.113-31.352
		c4.428-0.055,8.388-0.293,11.881-0.711c3.493-0.418,6.155,2.718,7.988,9.407c0.303,2.842,0.373,6.507,0.2,10.993
		c-0.172,4.488-1.632,7.232-4.381,8.235c0,0.167,0,0.334,0,0.502c0,0.167,0,0.335,0,0.502c1.526,0.334,2.691,1.367,3.492,3.093
		c0.803,1.729,1.365,3.679,1.689,5.853s0.477,4.375,0.46,6.604c-0.021,2.231-0.049,4.013-0.087,5.352
		c-0.114,2.731-0.649,5.212-1.604,7.439c-0.953,2.231-2.689,3.847-5.21,4.85c-2.367,0.224-4.743,0.516-7.128,0.878
		C701.2,314.836,698.863,314.738,696.57,314.182z M702.583,275.054c3.626-0.501,6.002-1.184,7.129-2.048s1.23-4.445,0.314-10.744
		c-0.648-1.783-1.671-2.718-3.062-2.801c-1.394-0.083-2.968-0.18-4.724-0.292c0.037,2.675,0.086,5.337,0.144,7.984
		C702.439,269.8,702.506,272.434,702.583,275.054z M702.583,305.903c4.467,0.057,7.254-1.003,8.359-3.177
		c1.108-2.174,1.412-6.104,0.918-11.789c-1.261-2.897-2.53-4.752-3.809-5.559c-1.28-0.807-3.103-1.157-5.469-1.045
		c-0.112,5.407-0.172,9.016-0.172,10.827S702.471,300.552,702.583,305.903z"/>
	<path d="M724.685,314.014c-0.114-10.423-0.2-20.846-0.256-31.269c-0.059-10.421,0.065-20.846,0.373-31.269
		c0.801,0,1.619-0.028,2.462-0.083c0.839-0.054,1.697-0.084,2.575-0.084c0.076,0.224,0.152,0.432,0.229,0.627
		c0.077,0.196,0.171,0.377,0.284,0.543c-0.419,8.528-0.591,17.294-0.514,26.295c0.076,9.001,0.324,17.737,0.745,26.209
		c3.55,0.168,5.8,0.293,6.756,0.377c0.953,0.084,2.52,0.293,4.694,0.627c-0.114,1.394-0.19,2.8-0.228,4.222
		c-0.039,1.422-0.08,2.83-0.115,4.221c-2.939,0.168-5.784,0.225-8.532,0.168C730.411,314.543,727.588,314.349,724.685,314.014z"/>
	<path d="M745.355,314.598c1.182-10.589,2.441-21.207,3.777-31.853s2.997-21.152,4.981-31.52c1.069,0,2.167-0.028,3.293-0.083
		c1.125-0.055,2.261-0.084,3.408-0.084c0.188,0.837,0.379,1.785,0.571,2.843c0.189,1.06,0.581,3.566,1.174,7.523
		c0.591,3.959,1.468,9.991,2.635,18.101c1.162,8.109,2.833,19.635,5.009,34.572c-1.03,0-2.033,0-3.007,0s-1.955,0-2.948,0
		c-0.611-2.562-1.021-4.362-1.229-5.394c-0.211-1.031-0.604-3.33-1.176-6.896c-2.289,0.167-3.816,0.083-4.579-0.252
		c-0.765-0.334-2.063-0.334-3.893,0c-0.688,3.345-1.088,5.728-1.205,7.148c-0.115,1.422-0.287,3.387-0.515,5.894
		c-2.444-0.11-3.932-0.168-4.467-0.168S746.042,314.487,745.355,314.598z M754.114,294.115c1.069,0,2.157,0,3.265,0
		c1.106,0,2.233,0,3.377,0c-0.305-4.348-0.764-9.46-1.374-15.341c-0.61-5.88-1.261-10.995-1.947-15.342
		c-0.189,1.06-0.342,2.119-0.456,3.178c-0.117,1.059-0.279,2.632-0.487,4.723c-0.21,2.09-0.496,4.92-0.859,8.486
		C755.271,283.386,754.763,288.152,754.114,294.115z"/>
	<path d="M320.048,414.508c-0.076-10.368-0.134-20.817-0.171-31.354c-0.039-10.533-0.077-20.984-0.115-31.352
		c4.428-0.055,8.388-0.292,11.882-0.711c3.492-0.418,6.155,2.718,7.988,9.406c0.304,2.843,0.372,6.508,0.2,10.993
		c-0.172,4.488-1.633,7.233-4.38,8.235c0,0.168,0,0.334,0,0.502s0,0.335,0,0.502c1.526,0.335,2.691,1.367,3.493,3.093
		c0.801,1.729,1.364,3.679,1.688,5.854c0.325,2.172,0.477,4.375,0.459,6.604c-0.02,2.23-0.049,4.013-0.086,5.351
		c-0.116,2.731-0.65,5.212-1.604,7.44c-0.954,2.231-2.691,3.846-5.211,4.851c-2.366,0.222-4.743,0.514-7.128,0.876
		C324.677,415.162,322.338,415.066,320.048,414.508z M326.061,375.381c3.625-0.502,6.002-1.184,7.128-2.048
		c1.126-0.864,1.231-4.446,0.314-10.744c-0.649-1.783-1.67-2.718-3.063-2.802c-1.393-0.083-2.968-0.18-4.724-0.293
		c0.038,2.676,0.086,5.339,0.144,7.984C325.917,370.127,325.983,372.761,326.061,375.381z M326.061,406.23
		c4.466,0.056,7.251-1.003,8.359-3.177c1.107-2.174,1.412-6.104,0.917-11.789c-1.26-2.898-2.53-4.752-3.808-5.561
		c-1.28-0.806-3.103-1.155-5.468-1.044c-0.115,5.407-0.172,9.017-0.172,10.827C325.889,397.3,325.945,400.88,326.061,406.23z"/>
	<path d="M348.161,414.341c-0.115-10.422-0.2-20.845-0.258-31.268c-0.057-10.423,0.066-20.848,0.372-31.271
		c0.802,0,1.622-0.027,2.463-0.083c0.838-0.054,1.697-0.083,2.575-0.083c0.076,0.224,0.152,0.432,0.229,0.627
		c0.076,0.194,0.173,0.376,0.287,0.542c-0.421,8.528-0.592,17.294-0.516,26.295c0.076,9.003,0.324,17.737,0.746,26.21
		c3.549,0.168,5.802,0.291,6.756,0.375c0.955,0.084,2.52,0.294,4.695,0.63c-0.114,1.393-0.192,2.8-0.228,4.22
		c-0.04,1.422-0.078,2.829-0.115,4.224c-2.94,0.167-5.783,0.223-8.532,0.167C353.887,414.87,351.062,414.675,348.161,414.341z"/>
	<path d="M368.831,414.926c1.182-10.589,2.442-21.209,3.778-31.853c1.336-10.647,2.996-21.154,4.982-31.521
		c1.067,0,2.165-0.027,3.292-0.085c1.125-0.054,2.261-0.082,3.407-0.082c0.19,0.836,0.382,1.784,0.574,2.843
		c0.189,1.059,0.58,3.566,1.173,7.523c0.591,3.958,1.469,9.99,2.634,18.101c1.164,8.11,2.834,19.635,5.009,34.57
		c-1.03,0-2.032,0-3.005,0s-1.957,0-2.949,0c-0.61-2.562-1.021-4.359-1.23-5.392c-0.211-1.031-0.602-3.331-1.174-6.897
		c-2.29,0.168-3.817,0.083-4.581-0.251c-0.764-0.334-2.061-0.334-3.894,0c-0.687,3.345-1.087,5.727-1.201,7.148
		c-0.116,1.42-0.286,3.385-0.516,5.895c-2.444-0.11-3.932-0.167-4.465-0.167C370.128,414.759,369.518,414.815,368.831,414.926z
		 M377.592,394.442c1.067,0,2.156,0,3.263,0c1.108,0,2.233,0,3.379,0c-0.307-4.348-0.765-9.461-1.375-15.342
		c-0.612-5.881-1.26-10.995-1.947-15.343c-0.191,1.061-0.344,2.12-0.458,3.178c-0.115,1.059-0.278,2.634-0.487,4.724
		c-0.21,2.09-0.496,4.921-0.858,8.486C378.745,383.712,378.24,388.477,377.592,394.442z"/>
	<path d="M414.179,414.508c-0.076-10.368-0.134-20.817-0.171-31.354c-0.04-10.533-0.077-20.984-0.116-31.352
		c4.429-0.055,8.389-0.292,11.882-0.711c3.492-0.418,6.155,2.718,7.988,9.406c0.304,2.843,0.371,6.508,0.2,10.993
		c-0.172,4.488-1.632,7.233-4.38,8.235c0,0.168,0,0.334,0,0.502s0,0.335,0,0.502c1.526,0.335,2.691,1.367,3.493,3.093
		c0.801,1.729,1.364,3.679,1.688,5.854c0.324,2.172,0.477,4.375,0.458,6.604c-0.02,2.23-0.049,4.013-0.086,5.351
		c-0.115,2.731-0.65,5.212-1.603,7.44c-0.955,2.231-2.691,3.846-5.211,4.851c-2.366,0.222-4.743,0.514-7.128,0.876
		C418.808,415.162,416.469,415.066,414.179,414.508z M420.192,375.381c3.625-0.502,6.001-1.184,7.129-2.048
		c1.125-0.864,1.23-4.446,0.314-10.744c-0.649-1.783-1.671-2.718-3.063-2.802c-1.393-0.083-2.969-0.18-4.725-0.293
		c0.038,2.676,0.087,5.339,0.144,7.984C420.049,370.127,420.115,372.761,420.192,375.381z M420.192,406.23
		c4.465,0.056,7.251-1.003,8.359-3.177c1.106-2.174,1.412-6.104,0.917-11.789c-1.26-2.898-2.53-4.752-3.808-5.561
		c-1.28-0.806-3.103-1.155-5.468-1.044c-0.116,5.407-0.172,9.017-0.172,10.827C420.02,397.3,420.076,400.88,420.192,406.23z"/>
	<path d="M442.293,414.341c-0.116-10.422-0.202-20.845-0.258-31.268c-0.059-10.423,0.065-20.848,0.372-31.271
		c0.802,0,1.622-0.027,2.462-0.083c0.84-0.054,1.697-0.083,2.577-0.083c0.076,0.224,0.151,0.432,0.229,0.627
		c0.075,0.194,0.172,0.376,0.286,0.542c-0.42,8.528-0.591,17.294-0.515,26.295c0.076,9.003,0.325,17.737,0.745,26.21
		c3.55,0.168,5.801,0.291,6.756,0.375c0.954,0.084,2.52,0.294,4.694,0.63c-0.114,1.393-0.19,2.8-0.228,4.22
		c-0.04,1.422-0.078,2.829-0.115,4.224c-2.939,0.167-5.783,0.223-8.532,0.167C448.018,414.87,445.192,414.675,442.293,414.341z"/>
	<path d="M462.962,414.926c1.183-10.589,2.442-21.209,3.778-31.853c1.336-10.647,2.997-21.154,4.982-31.521
		c1.067,0,2.165-0.027,3.292-0.085c1.126-0.054,2.262-0.082,3.407-0.082c0.189,0.836,0.381,1.784,0.572,2.843
		c0.19,1.059,0.582,3.566,1.174,7.523c0.592,3.958,1.469,9.99,2.635,18.101c1.163,8.11,2.834,19.635,5.008,34.57
		c-1.029,0-2.03,0-3.005,0c-0.973,0-1.956,0-2.948,0c-0.611-2.562-1.022-4.359-1.232-5.392c-0.209-1.031-0.6-3.331-1.173-6.897
		c-2.291,0.168-3.818,0.083-4.581-0.251c-0.764-0.334-2.061-0.334-3.893,0c-0.688,3.345-1.088,5.727-1.202,7.148
		c-0.116,1.42-0.287,3.385-0.516,5.895c-2.444-0.11-3.932-0.167-4.466-0.167C464.26,414.759,463.648,414.815,462.962,414.926z
		 M471.723,394.442c1.067,0,2.156,0,3.263,0c1.108,0,2.233,0,3.38,0c-0.308-4.348-0.765-9.461-1.374-15.342
		c-0.612-5.881-1.261-10.995-1.947-15.343c-0.191,1.061-0.344,2.12-0.459,3.178c-0.114,1.059-0.277,2.634-0.487,4.724
		s-0.495,4.921-0.858,8.486C472.876,383.712,472.37,388.477,471.723,394.442z"/>
	<path d="M508.31,414.508c-0.076-10.368-0.134-20.817-0.172-31.354c-0.038-10.533-0.076-20.984-0.114-31.352
		c4.428-0.055,8.389-0.292,11.883-0.711c3.493-0.418,6.155,2.718,7.985,9.406c0.304,2.843,0.375,6.508,0.203,10.993
		c-0.172,4.488-1.632,7.233-4.381,8.235c0,0.168,0,0.334,0,0.502s0,0.335,0,0.502c1.527,0.335,2.691,1.367,3.493,3.093
		c0.801,1.729,1.364,3.679,1.688,5.854c0.324,2.172,0.477,4.375,0.457,6.604c-0.021,2.23-0.046,4.013-0.086,5.351
		c-0.112,2.731-0.65,5.212-1.603,7.44c-0.953,2.231-2.692,3.846-5.213,4.851c-2.367,0.222-4.739,0.514-7.129,0.876
		C512.938,415.162,510.602,415.066,508.31,414.508z M514.323,375.381c3.626-0.502,6-1.184,7.129-2.048
		c1.126-0.864,1.228-4.446,0.315-10.744c-0.649-1.783-1.674-2.718-3.062-2.802c-1.395-0.083-2.972-0.18-4.727-0.293
		c0.037,2.676,0.086,5.339,0.144,7.984C514.18,370.127,514.247,372.761,514.323,375.381z M514.323,406.23
		c4.468,0.056,7.252-1.003,8.356-3.177c1.11-2.174,1.415-6.104,0.917-11.789c-1.256-2.898-2.529-4.752-3.808-5.561
		c-1.277-0.806-3.102-1.155-5.466-1.044c-0.116,5.407-0.172,9.017-0.172,10.827C514.151,397.3,514.207,400.88,514.323,406.23z"/>
	<path d="M536.423,414.341c-0.115-10.422-0.201-20.845-0.256-31.268c-0.059-10.423,0.065-20.848,0.372-31.271
		c0.801,0,1.62-0.027,2.461-0.083c0.84-0.054,1.698-0.083,2.576-0.083c0.076,0.224,0.152,0.432,0.23,0.627
		c0.075,0.194,0.17,0.376,0.284,0.542c-0.419,8.528-0.592,17.294-0.515,26.295c0.076,9.003,0.324,17.737,0.745,26.21
		c3.548,0.168,5.801,0.291,6.757,0.375c0.952,0.084,2.519,0.294,4.693,0.63c-0.113,1.393-0.189,2.8-0.228,4.22
		c-0.038,1.422-0.079,2.829-0.114,4.224c-2.939,0.167-5.784,0.223-8.533,0.167C542.149,414.87,539.324,414.675,536.423,414.341z"/>
	<path d="M557.093,414.926c1.181-10.589,2.441-21.209,3.778-31.853c1.335-10.647,2.995-21.154,4.98-31.521
		c1.07,0,2.167-0.027,3.294-0.085c1.125-0.054,2.26-0.082,3.406-0.082c0.189,0.836,0.38,1.784,0.573,2.843
		c0.189,1.059,0.579,3.566,1.173,7.523c0.591,3.958,1.468,9.99,2.634,18.101c1.164,8.11,2.835,19.635,5.01,34.57
		c-1.029,0-2.034,0-3.007,0c-0.974,0-1.954,0-2.947,0c-0.611-2.562-1.022-4.359-1.23-5.392c-0.21-1.031-0.604-3.331-1.176-6.897
		c-2.289,0.168-3.815,0.083-4.578-0.251c-0.766-0.334-2.063-0.334-3.895,0c-0.687,3.345-1.087,5.727-1.203,7.148
		c-0.115,1.42-0.286,3.385-0.515,5.895c-2.444-0.11-3.933-0.167-4.468-0.167C558.389,414.759,557.779,414.815,557.093,414.926z
		 M565.852,394.442c1.07,0,2.157,0,3.266,0c1.104,0,2.233,0,3.376,0c-0.304-4.348-0.764-9.461-1.374-15.342
		c-0.611-5.881-1.26-10.995-1.947-15.343c-0.189,1.061-0.341,2.12-0.456,3.178c-0.116,1.059-0.279,2.634-0.486,4.724
		c-0.211,2.09-0.497,4.921-0.859,8.486C567.008,383.712,566.501,388.477,565.852,394.442z"/>
	<path d="M602.439,414.508c-0.075-10.368-0.135-20.817-0.172-31.354c-0.038-10.533-0.075-20.984-0.115-31.352
		c4.43-0.055,8.39-0.292,11.882-0.711c3.494-0.418,6.156,2.718,7.989,9.406c0.304,2.843,0.372,6.508,0.2,10.993
		c-0.173,4.488-1.634,7.233-4.382,8.235c0,0.168,0,0.334,0,0.502s0,0.335,0,0.502c1.527,0.335,2.693,1.367,3.494,3.093
		c0.801,1.729,1.363,3.679,1.689,5.854c0.324,2.172,0.477,4.375,0.458,6.604c-0.021,2.23-0.048,4.013-0.087,5.351
		c-0.114,2.731-0.648,5.212-1.604,7.44c-0.953,2.231-2.689,3.846-5.209,4.851c-2.368,0.222-4.743,0.514-7.129,0.876
		C607.068,415.162,604.731,415.066,602.439,414.508z M608.453,375.381c3.625-0.502,6-1.184,7.129-2.048
		c1.125-0.864,1.229-4.446,0.314-10.744c-0.649-1.783-1.672-2.718-3.062-2.802c-1.395-0.083-2.969-0.18-4.726-0.293
		c0.038,2.676,0.086,5.339,0.144,7.984C608.309,370.127,608.374,372.761,608.453,375.381z M608.453,406.23
		c4.466,0.056,7.253-1.003,8.358-3.177c1.107-2.174,1.411-6.104,0.918-11.789c-1.261-2.898-2.531-4.752-3.808-5.561
		c-1.281-0.806-3.104-1.155-5.469-1.044c-0.115,5.407-0.173,9.017-0.173,10.827C608.28,397.3,608.338,400.88,608.453,406.23z"/>
	<path d="M630.553,414.341c-0.113-10.422-0.199-20.845-0.255-31.268c-0.06-10.423,0.065-20.848,0.372-31.271
		c0.801,0,1.62-0.027,2.461-0.083c0.84-0.054,1.699-0.083,2.576-0.083c0.076,0.224,0.151,0.432,0.23,0.627
		c0.077,0.194,0.17,0.376,0.285,0.542c-0.42,8.528-0.592,17.294-0.516,26.295c0.076,9.003,0.325,17.737,0.745,26.21
		c3.55,0.168,5.801,0.291,6.756,0.375c0.954,0.084,2.521,0.294,4.694,0.63c-0.112,1.393-0.189,2.8-0.228,4.22
		c-0.037,1.422-0.078,2.829-0.114,4.224c-2.94,0.167-5.784,0.223-8.533,0.167C636.279,414.87,633.456,414.675,630.553,414.341z"/>
	<path d="M651.224,414.926c1.182-10.589,2.44-21.209,3.777-31.853c1.336-10.647,2.997-21.154,4.981-31.521
		c1.07,0,2.168-0.027,3.293-0.085c1.126-0.054,2.262-0.082,3.407-0.082c0.19,0.836,0.381,1.784,0.573,2.843
		c0.19,1.059,0.58,3.566,1.174,7.523c0.591,3.958,1.467,9.99,2.634,18.101c1.163,8.11,2.835,19.635,5.009,34.57
		c-1.029,0-2.032,0-3.006,0c-0.975,0-1.956,0-2.949,0c-0.61-2.562-1.021-4.359-1.229-5.392c-0.21-1.031-0.604-3.331-1.176-6.897
		c-2.29,0.168-3.814,0.083-4.578-0.251c-0.766-0.334-2.063-0.334-3.894,0c-0.688,3.345-1.088,5.727-1.204,7.148
		c-0.114,1.42-0.287,3.385-0.515,5.895c-2.444-0.11-3.933-0.167-4.467-0.167C652.52,414.759,651.912,414.815,651.224,414.926z
		 M659.982,394.442c1.07,0,2.158,0,3.266,0c1.105,0,2.233,0,3.377,0c-0.305-4.348-0.764-9.461-1.375-15.342
		c-0.61-5.881-1.26-10.995-1.946-15.343c-0.19,1.061-0.343,2.12-0.457,3.178c-0.116,1.059-0.278,2.634-0.486,4.724
		c-0.21,2.09-0.497,4.921-0.858,8.486C661.139,383.712,660.631,388.477,659.982,394.442z"/>
	<path d="M696.57,414.508c-0.075-10.368-0.134-20.817-0.172-31.354c-0.037-10.533-0.076-20.984-0.113-31.352
		c4.428-0.055,8.388-0.292,11.881-0.711c3.493-0.418,6.155,2.718,7.988,9.406c0.303,2.843,0.373,6.508,0.2,10.993
		c-0.172,4.488-1.632,7.233-4.381,8.235c0,0.168,0,0.334,0,0.502s0,0.335,0,0.502c1.526,0.335,2.691,1.367,3.492,3.093
		c0.803,1.729,1.365,3.679,1.689,5.854c0.324,2.172,0.477,4.375,0.46,6.604c-0.021,2.23-0.049,4.013-0.087,5.351
		c-0.114,2.731-0.649,5.212-1.604,7.44c-0.953,2.231-2.689,3.846-5.21,4.851c-2.367,0.222-4.743,0.514-7.128,0.876
		C701.2,415.162,698.863,415.066,696.57,414.508z M702.583,375.381c3.626-0.502,6.002-1.184,7.129-2.048s1.23-4.446,0.314-10.744
		c-0.648-1.783-1.671-2.718-3.062-2.802c-1.394-0.083-2.968-0.18-4.724-0.293c0.037,2.676,0.086,5.339,0.144,7.984
		C702.439,370.127,702.506,372.761,702.583,375.381z M702.583,406.23c4.467,0.056,7.254-1.003,8.359-3.177
		c1.108-2.174,1.412-6.104,0.918-11.789c-1.261-2.898-2.53-4.752-3.809-5.561c-1.28-0.806-3.103-1.155-5.469-1.044
		c-0.112,5.407-0.172,9.017-0.172,10.827C702.411,397.3,702.471,400.88,702.583,406.23z"/>
	<path d="M724.685,414.341c-0.114-10.422-0.2-20.845-0.256-31.268c-0.059-10.423,0.065-20.848,0.373-31.271
		c0.801,0,1.619-0.027,2.462-0.083c0.839-0.054,1.697-0.083,2.575-0.083c0.076,0.224,0.152,0.432,0.229,0.627
		c0.077,0.194,0.171,0.376,0.284,0.542c-0.419,8.528-0.591,17.294-0.514,26.295c0.076,9.003,0.324,17.737,0.745,26.21
		c3.55,0.168,5.8,0.291,6.756,0.375c0.953,0.084,2.52,0.294,4.694,0.63c-0.114,1.393-0.19,2.8-0.228,4.22
		c-0.039,1.422-0.08,2.829-0.115,4.224c-2.939,0.167-5.784,0.223-8.532,0.167S727.588,414.675,724.685,414.341z"/>
	<path d="M745.355,414.926c1.182-10.589,2.441-21.209,3.777-31.853c1.336-10.647,2.997-21.154,4.981-31.521
		c1.069,0,2.167-0.027,3.293-0.085c1.125-0.054,2.261-0.082,3.408-0.082c0.188,0.836,0.379,1.784,0.571,2.843
		c0.189,1.059,0.581,3.566,1.174,7.523c0.591,3.958,1.468,9.99,2.635,18.101c1.162,8.11,2.833,19.635,5.009,34.57
		c-1.03,0-2.033,0-3.007,0s-1.955,0-2.948,0c-0.611-2.562-1.021-4.359-1.229-5.392c-0.211-1.031-0.604-3.331-1.176-6.897
		c-2.289,0.168-3.816,0.083-4.579-0.251c-0.765-0.334-2.063-0.334-3.893,0c-0.688,3.345-1.088,5.727-1.205,7.148
		c-0.115,1.42-0.287,3.385-0.515,5.895c-2.444-0.11-3.932-0.167-4.467-0.167S746.042,414.815,745.355,414.926z M754.114,394.442
		c1.069,0,2.157,0,3.265,0c1.106,0,2.233,0,3.377,0c-0.305-4.348-0.764-9.461-1.374-15.342s-1.261-10.995-1.947-15.343
		c-0.189,1.061-0.342,2.12-0.456,3.178c-0.117,1.059-0.279,2.634-0.487,4.724c-0.21,2.09-0.496,4.921-0.859,8.486
		C755.271,383.712,754.763,388.477,754.114,394.442z"/>
</g>
<g>
	<path d="M30.765,294.764c-0.598-3.814-1.194-7.664-1.782-11.545c-0.585-3.88-1.168-7.729-1.749-11.55
		c2.38-0.369,4.5-0.768,6.357-1.194c1.858-0.429,3.458,0.517,4.806,2.837c0.317,1.024,0.553,2.372,0.703,4.038
		c0.15,1.668-0.491,2.795-1.917,3.382c0.011,0.061,0.019,0.124,0.029,0.182c0.007,0.063,0.018,0.127,0.025,0.185
		c0.841,0.004,1.521,0.294,2.048,0.868c0.523,0.575,0.933,1.248,1.225,2.025c0.291,0.774,0.491,1.574,0.6,2.399
		c0.112,0.823,0.193,1.485,0.243,1.979c0.086,1.018-0.071,1.973-0.461,2.87c-0.395,0.897-1.242,1.63-2.545,2.197
		c-1.262,0.268-2.525,0.563-3.792,0.883C33.291,294.643,32.03,294.79,30.765,294.764z M31.893,279.868
		c1.927-0.47,3.172-0.907,3.729-1.316c0.56-0.406,0.42-1.736-0.409-3.986c-0.449-0.605-1.047-0.871-1.803-0.792
		c-0.755,0.08-1.606,0.167-2.558,0.264c0.166,0.984,0.335,1.961,0.507,2.932C31.536,277.942,31.713,278.908,31.893,279.868z
		 M33.556,291.241c2.408-0.33,3.851-0.939,4.327-1.829c0.479-0.887,0.433-2.361-0.139-4.419c-0.834-0.966-1.62-1.551-2.35-1.75
		c-0.732-0.196-1.731-0.183-2.999,0.045c0.228,2.001,0.395,3.337,0.492,4.003C32.983,287.959,33.207,289.277,33.556,291.241z"/>
	<path d="M45.889,292.494c-0.621-3.834-1.229-7.67-1.822-11.51c-0.591-3.839-1.087-7.69-1.483-11.557
		c0.431-0.063,0.873-0.138,1.321-0.225c0.448-0.086,0.91-0.163,1.381-0.233c0.056,0.079,0.106,0.147,0.157,0.213
		c0.054,0.067,0.115,0.124,0.186,0.179c0.233,3.175,0.613,6.422,1.138,9.735c0.527,3.313,1.131,6.515,1.813,9.604
		c1.921-0.219,3.138-0.349,3.658-0.395c0.517-0.044,1.371-0.088,2.56-0.137c0.013,0.522,0.046,1.048,0.104,1.575
		c0.056,0.527,0.111,1.05,0.167,1.564c-1.575,0.294-3.104,0.539-4.586,0.733C49,292.239,47.468,292.388,45.889,292.494z"/>
	<path d="M57.049,291.084c0.068-3.997,0.172-8.012,0.319-12.042c0.145-4.028,0.474-8.034,0.983-12.01
		c0.576-0.084,1.164-0.18,1.77-0.292c0.602-0.109,1.212-0.208,1.828-0.298c0.15,0.293,0.302,0.627,0.462,1.003
		c0.162,0.376,0.507,1.269,1.037,2.682c0.532,1.413,1.331,3.567,2.393,6.465c1.062,2.898,2.583,7.018,4.558,12.351
		c-0.552,0.082-1.092,0.16-1.617,0.236c-0.524,0.077-1.054,0.155-1.586,0.233c-0.467-0.898-0.786-1.527-0.953-1.89
		c-0.17-0.365-0.505-1.183-1.004-2.451c-1.222,0.239-2.051,0.331-2.479,0.267s-1.125,0.038-2.097,0.307
		c-0.19,1.288-0.276,2.198-0.263,2.73c0.018,0.533,0.03,1.27,0.042,2.212c-1.323,0.153-2.126,0.247-2.416,0.288
		C57.735,290.918,57.414,290.989,57.049,291.084z M60.661,282.841c0.576-0.083,1.161-0.17,1.759-0.256
		c0.593-0.087,1.202-0.176,1.818-0.266c-0.4-1.578-0.92-3.427-1.566-5.545c-0.644-2.122-1.27-3.954-1.874-5.503
		c-0.048,0.404-0.074,0.808-0.076,1.208c-0.005,0.398-0.008,0.992-0.008,1.778c0,0.788-0.002,1.852-0.005,3.195
		C60.704,278.795,60.688,280.594,60.661,282.841z"/>
	<path d="M74.555,292.616c-0.139-0.23-0.22-0.401-0.246-0.513c-0.03-0.11-0.076-0.394-0.142-0.846
		c0.091-0.095,0.193-0.19,0.307-0.279c0.112-0.09,0.226-0.175,0.34-0.255c-0.053-0.369-0.106-0.73-0.157-1.079
		c-0.051-0.348-0.094-0.708-0.127-1.082c-0.172-0.037-0.347-0.06-0.512-0.068c-0.173-0.005-0.33-0.032-0.484-0.069
		c-0.086-0.577-0.17-1.156-0.257-1.743c-0.083-0.586-0.169-1.165-0.253-1.742c0.154-0.087,0.654-0.16,1.493-0.218
		c0.842-0.058,1.488-0.142,1.932-0.251c0.297,1.888,0.492,3.513,0.588,4.874C77.128,290.705,76.302,291.796,74.555,292.616z"/>
</g>
<g>
	<path d="M190.146,286.583c0.388-3.841,0.786-7.714,1.2-11.619c0.417-3.904,0.828-7.772,1.233-11.615
		c2.397,0.246,4.549,0.395,6.454,0.454c1.907,0.056,3.214,1.374,3.931,3.962c0.047,1.072-0.065,2.436-0.343,4.084
		c-0.279,1.653-1.184,2.581-2.711,2.789c-0.006,0.061-0.014,0.122-0.019,0.182c-0.011,0.061-0.016,0.127-0.023,0.185
		c0.814,0.216,1.397,0.669,1.763,1.359c0.359,0.687,0.585,1.442,0.671,2.269c0.086,0.822,0.076,1.648-0.028,2.472
		c-0.1,0.824-0.189,1.486-0.265,1.978c-0.173,1.006-0.567,1.888-1.172,2.659c-0.611,0.768-1.615,1.263-3.019,1.48
		c-1.29-0.061-2.586-0.096-3.893-0.106C192.62,287.108,191.362,286.931,190.146,286.583z M195.011,272.46
		c1.982,0.033,3.298-0.076,3.939-0.33c0.646-0.251,0.849-1.574,0.616-3.96c-0.279-0.697-0.791-1.107-1.544-1.222
		c-0.749-0.114-1.595-0.246-2.54-0.394c-0.089,0.994-0.172,1.98-0.252,2.964C195.152,270.506,195.079,271.487,195.011,272.46z
		 M193.738,283.883c2.413,0.291,3.963,0.066,4.649-0.674c0.688-0.735,1.017-2.172,0.984-4.307c-0.561-1.148-1.173-1.912-1.83-2.289
		c-0.66-0.375-1.629-0.616-2.912-0.717c-0.286,1.995-0.464,3.329-0.54,4C194.014,280.564,193.897,281.896,193.738,283.883z"/>
	<path d="M205.351,288.22c0.371-3.868,0.754-7.731,1.154-11.597c0.4-3.864,0.895-7.714,1.493-11.555
		c0.432,0.048,0.878,0.086,1.333,0.116c0.456,0.033,0.922,0.074,1.396,0.124c0.033,0.092,0.066,0.17,0.099,0.247
		c0.033,0.078,0.079,0.149,0.132,0.22c-0.578,3.13-1.033,6.368-1.363,9.707c-0.33,3.339-0.558,6.588-0.681,9.75
		c1.916,0.274,3.125,0.457,3.639,0.545c0.512,0.089,1.349,0.262,2.511,0.518c-0.119,0.507-0.222,1.024-0.298,1.549
		c-0.08,0.525-0.16,1.045-0.235,1.555c-1.598-0.112-3.138-0.264-4.623-0.452C208.425,288.761,206.906,288.517,205.351,288.22z"/>
	<path d="M216.502,289.684c1.08-3.849,2.198-7.709,3.362-11.57c1.16-3.858,2.494-7.651,3.993-11.37
		c0.579,0.066,1.171,0.122,1.787,0.167c0.608,0.048,1.224,0.106,1.843,0.175c0.071,0.322,0.132,0.685,0.192,1.088
		c0.062,0.406,0.169,1.356,0.322,2.856c0.159,1.501,0.385,3.788,0.68,6.86c0.291,3.075,0.72,7.445,1.278,13.104
		c-0.553-0.062-1.098-0.123-1.623-0.183c-0.527-0.058-1.059-0.117-1.594-0.175c-0.224-0.988-0.374-1.675-0.444-2.071
		c-0.07-0.396-0.188-1.273-0.349-2.626c-1.242-0.075-2.069-0.198-2.467-0.368c-0.398-0.169-1.097-0.248-2.105-0.235
		c-0.511,1.199-0.825,2.059-0.947,2.576c-0.119,0.519-0.291,1.237-0.518,2.152c-1.319-0.19-2.121-0.302-2.409-0.335
		C217.21,289.696,216.88,289.684,216.502,289.684z M222.087,282.624c0.577,0.065,1.165,0.131,1.766,0.2
		c0.596,0.063,1.208,0.132,1.826,0.203c0.012-1.63-0.023-3.549-0.112-5.763c-0.085-2.215-0.226-4.146-0.418-5.8
		c-0.147,0.38-0.276,0.763-0.38,1.151c-0.104,0.383-0.256,0.958-0.457,1.718c-0.199,0.761-0.471,1.79-0.813,3.09
		C223.153,278.722,222.683,280.458,222.087,282.624z"/>
	<path d="M233.051,295.6c-0.076-0.256-0.111-0.444-0.108-0.558c-0.002-0.114,0.027-0.4,0.076-0.854
		c0.113-0.069,0.235-0.135,0.367-0.193c0.132-0.061,0.264-0.114,0.395-0.163c0.04-0.37,0.081-0.732,0.121-1.082
		c0.038-0.35,0.087-0.71,0.151-1.08c-0.158-0.079-0.32-0.145-0.478-0.193c-0.164-0.048-0.311-0.114-0.451-0.19
		c0.063-0.581,0.129-1.164,0.193-1.751c0.068-0.588,0.131-1.172,0.197-1.75c0.171-0.043,0.672,0.01,1.499,0.167
		c0.83,0.157,1.475,0.241,1.934,0.246c-0.192,1.901-0.416,3.524-0.667,4.864C236.024,294.404,234.948,295.25,233.051,295.6z"/>
</g>
<g>
	<path d="M139.663,258.618c-0.167-3.856-0.328-7.747-0.479-11.671c-0.147-3.922-0.295-7.813-0.445-11.675
		c2.406-0.099,4.559-0.258,6.451-0.473c1.895-0.218,3.379,0.899,4.459,3.356c0.201,1.054,0.284,2.418,0.245,4.091
		c-0.038,1.676-0.799,2.722-2.281,3.146c0.003,0.064,0.003,0.127,0.007,0.186c-0.001,0.063,0.001,0.129,0.002,0.187
		c0.837,0.099,1.479,0.462,1.94,1.091c0.455,0.628,0.788,1.346,0.99,2.149c0.204,0.801,0.312,1.62,0.328,2.452
		c0.02,0.829,0.025,1.496,0.021,1.995c-0.028,1.019-0.293,1.952-0.78,2.799c-0.494,0.847-1.417,1.481-2.775,1.896
		c-1.284,0.126-2.572,0.278-3.867,0.456C142.187,258.78,140.917,258.787,139.663,258.618z M142.452,243.942
		c1.967-0.251,3.252-0.547,3.852-0.89c0.604-0.342,0.613-1.678,0.04-4.008c-0.376-0.651-0.942-0.984-1.702-0.989
		s-1.617-0.013-2.571-0.023c0.053,0.993,0.113,1.985,0.177,2.968C142.312,241.988,142.38,242.969,142.452,243.942z M142.832,255.429
		c2.43-0.059,3.932-0.502,4.503-1.333c0.577-0.827,0.696-2.296,0.357-4.406c-0.721-1.055-1.436-1.721-2.139-2
		c-0.707-0.277-1.702-0.375-2.987-0.292c0.003,2.016,0.021,3.362,0.042,4.034C142.629,252.105,142.703,253.441,142.832,255.429z"/>
	<path d="M154.948,258.055c-0.189-3.878-0.364-7.76-0.525-11.641c-0.157-3.882-0.22-7.766-0.179-11.652
		c0.436-0.015,0.881-0.04,1.337-0.073c0.455-0.035,0.922-0.063,1.398-0.079c0.046,0.083,0.089,0.157,0.133,0.231
		c0.043,0.071,0.099,0.134,0.164,0.197c-0.124,3.182-0.109,6.449,0.041,9.801c0.155,3.351,0.396,6.599,0.727,9.747
		c1.936-0.002,3.158,0.005,3.679,0.018c0.52,0.013,1.373,0.066,2.56,0.152c-0.046,0.52-0.071,1.044-0.072,1.574
		c-0.003,0.529-0.008,1.058-0.009,1.574c-1.597,0.116-3.144,0.188-4.639,0.215C158.066,258.148,156.528,258.128,154.948,258.055z"/>
	<path d="M166.194,257.903c0.515-3.965,1.067-7.942,1.666-11.93c0.594-3.987,1.369-7.93,2.32-11.826
		c0.582-0.018,1.176-0.048,1.791-0.091c0.609-0.041,1.227-0.071,1.85-0.091c0.115,0.307,0.229,0.657,0.347,1.046
		c0.119,0.394,0.361,1.318,0.729,2.781c0.371,1.465,0.923,3.693,1.655,6.695c0.73,2.996,1.782,7.259,3.147,12.781
		c-0.558,0.018-1.104,0.038-1.634,0.053c-0.53,0.018-1.065,0.036-1.603,0.054c-0.363-0.943-0.611-1.605-0.736-1.983
		c-0.127-0.383-0.369-1.231-0.722-2.55c-1.241,0.101-2.075,0.099-2.494-0.01c-0.418-0.112-1.122-0.089-2.119,0.068
		c-0.333,1.26-0.519,2.155-0.566,2.685c-0.042,0.532-0.113,1.265-0.205,2.206c-1.332,0.002-2.141,0.005-2.434,0.015
		C166.896,257.814,166.566,257.85,166.194,257.903z M170.706,250.115c0.581-0.018,1.174-0.038,1.777-0.056
		c0.6-0.02,1.214-0.041,1.836-0.061c-0.222-1.615-0.533-3.509-0.938-5.686c-0.4-2.18-0.819-4.071-1.244-5.681
		c-0.093,0.398-0.164,0.796-0.212,1.194c-0.049,0.393-0.118,0.983-0.205,1.765c-0.088,0.783-0.211,1.84-0.364,3.176
		C171.201,246.1,170.985,247.887,170.706,250.115z"/>
	<path d="M183.419,261.384c-0.113-0.244-0.173-0.424-0.187-0.538c-0.018-0.112-0.031-0.398-0.047-0.854
		c0.102-0.084,0.212-0.167,0.336-0.244c0.121-0.079,0.245-0.149,0.366-0.215c-0.013-0.373-0.024-0.738-0.035-1.09
		c-0.012-0.353-0.014-0.715-0.003-1.09c-0.169-0.056-0.34-0.099-0.504-0.125c-0.169-0.025-0.323-0.068-0.471-0.125
		c-0.022-0.583-0.041-1.166-0.061-1.759c-0.018-0.591-0.038-1.177-0.058-1.759c0.164-0.068,0.668-0.086,1.51-0.048
		c0.842,0.036,1.493,0.022,1.947-0.036c0.083,1.909,0.096,3.546,0.038,4.911C186.19,259.774,185.247,260.765,183.419,261.384z"/>
</g>
<g>
	<path d="M195.622,252.646c-0.274-6.298-0.537-12.653-0.783-19.063c-0.24-6.406-0.482-12.761-0.727-19.067
		c3.929-0.162,7.445-0.423,10.538-0.774c3.093-0.356,5.518,1.469,7.283,5.482c0.327,1.723,0.464,3.95,0.399,6.682
		c-0.062,2.738-1.305,4.449-3.727,5.139c0.006,0.104,0.006,0.208,0.013,0.303c-0.002,0.104,0.002,0.211,0.004,0.307
		c1.366,0.161,2.416,0.753,3.167,1.78c0.744,1.027,1.288,2.199,1.618,3.512c0.334,1.308,0.511,2.646,0.536,4.004
		c0.032,1.353,0.042,2.442,0.036,3.257c-0.046,1.665-0.479,3.189-1.276,4.572c-0.806,1.383-2.315,2.418-4.533,3.097
		c-2.096,0.208-4.2,0.456-6.316,0.745C199.744,252.911,197.671,252.924,195.622,252.646z M200.176,228.677
		c3.213-0.41,5.312-0.895,6.292-1.454c0.985-0.559,1.003-2.741,0.067-6.545c-0.615-1.065-1.538-1.607-2.78-1.615
		c-1.241-0.009-2.641-0.021-4.199-0.039c0.087,1.624,0.184,3.243,0.288,4.849C199.949,225.484,200.06,227.086,200.176,228.677z
		 M200.796,247.437c3.969-0.095,6.423-0.819,7.356-2.178c0.942-1.35,1.137-3.751,0.584-7.196c-1.177-1.722-2.346-2.812-3.495-3.268
		c-1.156-0.451-2.778-0.612-4.877-0.477c0.004,3.292,0.033,5.491,0.069,6.588C200.466,242.009,200.585,244.191,200.796,247.437z"/>
	<path d="M220.587,251.728c-0.308-6.335-0.593-12.675-0.857-19.014c-0.256-6.338-0.36-12.683-0.294-19.031
		c0.712-0.025,1.441-0.066,2.185-0.12c0.743-0.058,1.507-0.103,2.286-0.128c0.075,0.137,0.145,0.257,0.216,0.376
		c0.071,0.117,0.163,0.22,0.268,0.323c-0.203,5.197-0.178,10.535,0.066,16.007c0.252,5.475,0.647,10.779,1.187,15.922
		c3.161-0.004,5.16,0.007,6.011,0.029c0.848,0.02,2.242,0.107,4.18,0.248c-0.075,0.848-0.117,1.706-0.118,2.571
		c-0.005,0.866-0.013,1.728-0.016,2.572c-2.608,0.19-5.135,0.307-7.577,0.353C225.681,251.881,223.168,251.848,220.587,251.728z"/>
	<path d="M238.956,251.479c0.841-6.477,1.743-12.973,2.72-19.486c0.971-6.514,2.235-12.953,3.791-19.317
		c0.95-0.029,1.92-0.079,2.925-0.148c0.995-0.067,2.004-0.116,3.021-0.149c0.188,0.5,0.374,1.072,0.567,1.71
		c0.195,0.641,0.59,2.153,1.192,4.542c0.604,2.393,1.507,6.032,2.703,10.935c1.191,4.894,2.91,11.858,5.14,20.877
		c-0.91,0.029-1.803,0.062-2.668,0.087c-0.865,0.029-1.739,0.058-2.617,0.086c-0.594-1.541-0.998-2.62-1.203-3.237
		c-0.206-0.626-0.602-2.013-1.18-4.167c-2.027,0.167-3.388,0.163-4.074-0.016c-0.683-0.181-1.833-0.144-3.458,0.113
		c-0.545,2.058-0.85,3.52-0.927,4.385c-0.067,0.869-0.184,2.066-0.334,3.602c-2.176,0.004-3.497,0.009-3.976,0.026
		C240.102,251.333,239.564,251.391,238.956,251.479z M246.326,238.759c0.948-0.03,1.917-0.062,2.901-0.09
		c0.979-0.034,1.983-0.067,3-0.101c-0.361-2.638-0.869-5.73-1.531-9.287c-0.655-3.561-1.337-6.65-2.033-9.279
		c-0.152,0.649-0.267,1.3-0.346,1.95c-0.081,0.642-0.193,1.606-0.335,2.881c-0.145,1.281-0.344,3.007-0.595,5.189
		C247.135,232.2,246.781,235.119,246.326,238.759z"/>
	<path d="M267.091,257.164c-0.184-0.398-0.283-0.692-0.305-0.877c-0.029-0.183-0.052-0.651-0.076-1.396
		c0.165-0.137,0.346-0.274,0.548-0.398c0.197-0.127,0.399-0.244,0.599-0.352c-0.022-0.608-0.04-1.204-0.059-1.779
		c-0.019-0.575-0.023-1.168-0.006-1.781c-0.275-0.091-0.555-0.162-0.823-0.202c-0.276-0.042-0.527-0.112-0.77-0.203
		c-0.035-0.954-0.066-1.905-0.1-2.874c-0.028-0.965-0.062-1.921-0.093-2.874c0.268-0.113,1.092-0.142,2.465-0.078
		c1.375,0.057,2.439,0.037,3.181-0.059c0.137,3.118,0.157,5.792,0.062,8.02C271.617,254.535,270.077,256.153,267.091,257.164z"/>
</g>
<g>
	<path d="M146.581,283.076c0.614-2.668,1.235-5.359,1.871-8.07c0.636-2.706,1.268-5.396,1.894-8.064
		c1.663,0.386,3.164,0.682,4.498,0.89c1.337,0.209,2.141,1.251,2.417,3.135c-0.062,0.759-0.261,1.705-0.604,2.843
		c-0.339,1.139-1.059,1.71-2.152,1.72c-0.008,0.044-0.021,0.087-0.029,0.128c-0.012,0.043-0.021,0.089-0.033,0.129
		c0.554,0.223,0.924,0.593,1.12,1.112c0.191,0.516,0.285,1.067,0.271,1.655c-0.011,0.585-0.09,1.166-0.236,1.738
		c-0.143,0.571-0.265,1.026-0.36,1.367c-0.211,0.691-0.566,1.28-1.061,1.767c-0.497,0.487-1.247,0.747-2.253,0.774
		c-0.903-0.156-1.812-0.294-2.73-0.417C148.275,283.663,147.407,283.428,146.581,283.076z M151.251,273.568
		c1.394,0.198,2.327,0.239,2.802,0.117c0.476-0.12,0.734-1.031,0.782-2.733c-0.137-0.516-0.46-0.848-0.977-0.995
		c-0.52-0.148-1.102-0.314-1.754-0.5c-0.151,0.69-0.297,1.378-0.438,2.062C151.523,272.207,151.386,272.889,151.251,273.568z
		 M149.348,281.494c1.672,0.417,2.783,0.396,3.33-0.066c0.55-0.456,0.909-1.44,1.073-2.943c-0.293-0.857-0.657-1.45-1.085-1.773
		c-0.432-0.322-1.092-0.577-1.986-0.758c-0.378,1.377-0.619,2.301-0.733,2.765C149.836,279.182,149.636,280.11,149.348,281.494z"/>
	<path d="M157.137,285.569c0.601-2.688,1.212-5.373,1.833-8.058c0.623-2.683,1.312-5.348,2.071-8c0.3,0.073,0.609,0.14,0.928,0.202
		c0.318,0.061,0.643,0.131,0.971,0.21c0.015,0.067,0.032,0.125,0.046,0.181c0.017,0.059,0.042,0.112,0.075,0.167
		c-0.683,2.15-1.29,4.39-1.815,6.707c-0.527,2.321-0.974,4.588-1.34,6.802c1.322,0.362,2.159,0.597,2.511,0.702
		c0.352,0.108,0.928,0.304,1.722,0.587c-0.129,0.346-0.247,0.701-0.346,1.063c-0.103,0.361-0.204,0.72-0.303,1.073
		c-1.114-0.221-2.184-0.464-3.211-0.727C159.25,286.219,158.204,285.915,157.137,285.569z"/>
	<path d="M164.854,287.582c1.098-2.612,2.226-5.229,3.385-7.843c1.157-2.613,2.43-5.163,3.813-7.646
		c0.399,0.098,0.814,0.189,1.241,0.275c0.424,0.087,0.852,0.182,1.281,0.287c0.022,0.229,0.035,0.493,0.041,0.779
		c0.006,0.292-0.002,0.971-0.025,2.04c-0.021,1.07-0.065,2.699-0.129,4.887c-0.064,2.188-0.148,5.301-0.253,9.333
		c-0.386-0.094-0.763-0.184-1.128-0.271c-0.365-0.089-0.735-0.176-1.105-0.266c-0.071-0.714-0.116-1.212-0.13-1.496
		c-0.017-0.284-0.021-0.91-0.017-1.877c-0.867-0.165-1.436-0.324-1.701-0.478c-0.265-0.155-0.752-0.271-1.462-0.35
		c-0.465,0.795-0.761,1.373-0.892,1.726c-0.129,0.356-0.316,0.846-0.555,1.469c-0.912-0.25-1.465-0.399-1.667-0.448
		C165.349,287.655,165.12,287.616,164.854,287.582z M169.405,283.107c0.4,0.098,0.807,0.193,1.225,0.295
		c0.413,0.099,0.837,0.201,1.266,0.303c0.153-1.144,0.299-2.496,0.431-4.063c0.135-1.565,0.205-2.938,0.217-4.115
		c-0.137,0.253-0.262,0.512-0.367,0.774c-0.109,0.262-0.269,0.652-0.475,1.168c-0.208,0.52-0.49,1.219-0.846,2.103
		C170.499,280.456,170.014,281.637,169.405,283.107z"/>
	<path d="M175.974,293.204c-0.03-0.188-0.038-0.321-0.027-0.402c0.01-0.08,0.055-0.278,0.129-0.593
		c0.086-0.04,0.177-0.074,0.276-0.103c0.097-0.03,0.194-0.057,0.292-0.079c0.062-0.257,0.122-0.508,0.18-0.751
		c0.059-0.242,0.126-0.491,0.203-0.746c-0.104-0.071-0.213-0.131-0.32-0.18c-0.112-0.048-0.208-0.107-0.301-0.174
		c0.097-0.4,0.194-0.805,0.292-1.213c0.099-0.409,0.194-0.811,0.292-1.213c0.125-0.017,0.473,0.065,1.041,0.249
		c0.57,0.184,1.017,0.298,1.337,0.344c-0.302,1.321-0.601,2.443-0.896,3.362C178.171,292.625,177.34,293.127,175.974,293.204z"/>
</g>
<g>
	<path d="M77.043,275.521c0.254-5.061,0.522-10.164,0.809-15.308c0.289-5.144,0.571-10.244,0.852-15.311
		c3.157,0.165,5.987,0.223,8.488,0.172c2.502-0.053,4.305,1.595,5.414,4.935c0.134,1.4,0.075,3.198-0.181,5.381
		c-0.256,2.182-1.383,3.456-3.37,3.825c-0.004,0.083-0.01,0.167-0.011,0.243c-0.009,0.083-0.014,0.17-0.019,0.246
		c1.08,0.23,1.876,0.787,2.399,1.667c0.516,0.876,0.864,1.851,1.03,2.928c0.168,1.071,0.21,2.152,0.128,3.243
		c-0.076,1.085-0.15,1.957-0.218,2.606c-0.162,1.331-0.62,2.516-1.364,3.563c-0.747,1.048-2.034,1.76-3.857,2.139
		c-1.694,0.007-3.395,0.047-5.11,0.12C80.319,276.043,78.661,275.894,77.043,275.521z M82.49,256.687
		c2.602-0.087,4.317-0.312,5.143-0.688c0.83-0.373,1.007-2.12,0.547-5.23c-0.417-0.899-1.113-1.4-2.103-1.505
		c-0.993-0.1-2.111-0.215-3.358-0.346c-0.053,1.308-0.097,2.608-0.137,3.903C82.547,254.118,82.516,255.406,82.49,256.687z
		 M81.575,271.745c3.181,0.224,5.197-0.173,6.048-1.188c0.856-1.015,1.192-2.918,1.008-5.716c-0.811-1.468-1.664-2.426-2.55-2.878
		c-0.89-0.445-2.173-0.698-3.864-0.746c-0.244,2.633-0.389,4.392-0.442,5.274C81.718,267.376,81.65,269.129,81.575,271.745z"/>
	<path d="M97.083,276.663c0.229-5.091,0.479-10.185,0.745-15.275c0.273-5.09,0.668-10.171,1.198-15.244
		c0.57,0.033,1.157,0.057,1.757,0.063c0.599,0.013,1.211,0.037,1.836,0.074c0.051,0.117,0.098,0.219,0.146,0.315
		c0.049,0.1,0.113,0.19,0.188,0.28c-0.55,4.142-0.935,8.414-1.15,12.812c-0.209,4.399-0.294,8.672-0.247,12.823
		c2.526,0.237,4.126,0.397,4.804,0.479c0.676,0.08,1.787,0.254,3.328,0.51c-0.126,0.676-0.225,1.361-0.289,2.049
		c-0.069,0.692-0.14,1.381-0.207,2.056c-2.1-0.043-4.129-0.139-6.087-0.289C101.147,277.168,99.14,276.953,97.083,276.663z"/>
	<path d="M111.799,277.848c1.158-5.117,2.371-10.248,3.642-15.388c1.265-5.134,2.764-10.191,4.484-15.162
		c0.764,0.046,1.544,0.08,2.353,0.096c0.801,0.023,1.614,0.06,2.427,0.111c0.114,0.416,0.22,0.889,0.327,1.41
		c0.105,0.528,0.309,1.766,0.609,3.727c0.306,1.957,0.754,4.937,1.341,8.946c0.588,4.01,1.436,9.708,2.542,17.092
		c-0.734-0.043-1.448-0.086-2.141-0.133c-0.698-0.041-1.398-0.084-2.103-0.123c-0.357-1.281-0.599-2.176-0.717-2.685
		c-0.119-0.516-0.332-1.654-0.632-3.421c-1.634-0.02-2.723-0.123-3.256-0.319c-0.535-0.196-1.457-0.252-2.776-0.169
		c-0.59,1.604-0.944,2.752-1.072,3.437c-0.121,0.692-0.299,1.641-0.538,2.854c-1.74-0.16-2.798-0.253-3.18-0.28
		C112.725,277.817,112.292,277.821,111.799,277.848z M118.651,268.225c0.76,0.046,1.537,0.098,2.329,0.143
		c0.784,0.051,1.592,0.097,2.405,0.146c-0.089-2.133-0.261-4.647-0.524-7.542c-0.257-2.898-0.568-5.423-0.928-7.572
		c-0.172,0.506-0.313,1.015-0.422,1.53c-0.115,0.509-0.276,1.271-0.488,2.283c-0.212,1.012-0.501,2.375-0.865,4.103
		C119.791,263.038,119.288,265.347,118.651,268.225z"/>
	<path d="M133.876,284.514c-0.115-0.336-0.174-0.575-0.178-0.725c-0.009-0.149,0.009-0.53,0.045-1.124
		c0.143-0.101,0.3-0.194,0.47-0.28c0.167-0.086,0.337-0.164,0.506-0.236c0.029-0.486,0.06-0.965,0.087-1.427
		c0.026-0.46,0.068-0.935,0.126-1.424c-0.211-0.093-0.43-0.17-0.64-0.223c-0.221-0.053-0.415-0.129-0.605-0.219
		c0.045-0.766,0.094-1.534,0.142-2.309c0.048-0.774,0.091-1.544,0.14-2.306c0.221-0.065,0.883-0.029,1.976,0.121
		c1.098,0.153,1.949,0.22,2.55,0.197c-0.124,2.504-0.311,4.644-0.552,6.421C137.697,282.748,136.344,283.929,133.876,284.514z"/>
</g>
</svg>
