<?xml version="1.0" encoding="utf-8"?>
<!-- Generator: Adobe Illustrator 16.0.0, SVG Export Plug-In . SVG Version: 6.00 Build 0)  -->
<!DOCTYPE svg PUBLIC "-//W3C//DTD SVG 1.1//EN" "http://www.w3.org/Graphics/SVG/1.1/DTD/svg11.dtd">
<svg version="1.1" id="Layer_1" xmlns="http://www.w3.org/2000/svg" xmlns:xlink="http://www.w3.org/1999/xlink" x="0px" y="0px"
	 width="900px" height="500px" viewBox="0 0 900 500" enable-background="new 0 0 900 500" xml:space="preserve">
<polygon fill="#999999" points="286.56,176.565 286.56,441.827 604.727,441.827 604.727,261.623 481.913,126.108 "/>
<g>
	<circle cx="271.103" cy="164.545" r="11.411"/>
	<g>
		<path fill="#FFFFFF" d="M267.898,159.504c0.693-0.153,1.262-0.31,1.707-0.47c0.445-0.16,0.908-0.367,1.391-0.62h1.563v9.386h2.173
			v1.584h-6.833V167.8h2.753v-7.428c-0.803,0.306-1.721,0.502-2.753,0.588L267.898,159.504L267.898,159.504z"/>
	</g>
</g>
<g>
	<circle cx="274.731" cy="451.018" r="11.411"/>
	<g>
		<path fill="#FFFFFF" d="M271.01,447.805c0.12-0.559,0.311-1.037,0.574-1.434c0.378-0.561,0.852-0.982,1.423-1.271
			c0.571-0.285,1.182-0.43,1.832-0.43c1.061,0,1.926,0.3,2.596,0.899c0.669,0.601,1.004,1.3,1.004,2.098
			c0,0.435-0.096,0.865-0.287,1.291c-0.191,0.425-0.468,0.836-0.832,1.232c-0.268,0.292-0.785,0.761-1.552,1.405
			c-0.768,0.646-1.309,1.126-1.624,1.444c-0.316,0.318-0.61,0.658-0.882,1.021h5.141v1.794h-7.622v-0.346
			c0-0.521,0.11-1.021,0.33-1.505c0.22-0.483,0.585-1.007,1.097-1.57c0.282-0.312,0.939-0.918,1.972-1.82
			c0.774-0.685,1.25-1.124,1.427-1.319c0.258-0.277,0.445-0.544,0.56-0.8s0.172-0.496,0.172-0.721c0-0.393-0.152-0.731-0.455-1.02
			c-0.304-0.286-0.692-0.43-1.166-0.43c-0.454,0-0.861,0.152-1.222,0.459c-0.361,0.306-0.64,0.791-0.835,1.455L271.01,447.805z"/>
	</g>
</g>
<g>
	<circle cx="616.138" cy="453.239" r="11.412"/>
	<g>
		<path fill="#FFFFFF" d="M612.711,448.471c0.684-0.588,1.293-0.998,1.828-1.229c0.536-0.231,1.119-0.349,1.75-0.349
			c1.143,0,2.039,0.34,2.688,1.019c0.513,0.545,0.769,1.152,0.769,1.821c0,0.545-0.19,1.042-0.57,1.491s-0.926,0.768-1.639,0.953
			c0.784,0.383,1.372,0.834,1.765,1.355c0.393,0.521,0.588,1.107,0.588,1.764c0,0.827-0.334,1.533-1.001,2.119
			c-0.666,0.585-1.59,0.878-2.771,0.878c-0.612,0-1.158-0.093-1.639-0.279c-0.481-0.186-0.914-0.443-1.303-0.773
			c-0.268-0.229-0.576-0.581-0.925-1.055l1.57-0.982c0.454,0.502,0.87,0.863,1.248,1.083c0.377,0.22,0.753,0.33,1.125,0.33
			c0.454,0,0.837-0.149,1.146-0.448c0.311-0.299,0.466-0.651,0.466-1.058c0-0.521-0.219-0.96-0.654-1.315
			c-0.438-0.355-1.204-0.534-2.299-0.534h-0.666v-1.886h0.5c1.162,0,1.989-0.168,2.481-0.502c0.349-0.239,0.523-0.553,0.523-0.938
			c0-0.325-0.15-0.624-0.452-0.896c-0.301-0.272-0.659-0.408-1.075-0.408c-0.717,0-1.425,0.372-2.122,1.118L612.711,448.471z"/>
	</g>
</g>
<g>
	<circle cx="623.664" cy="253.434" r="11.412"/>
	<g>
		<path fill="#FFFFFF" d="M623.767,247.303h2.614v6.998h1.557v1.793h-1.557v2.18h-1.893v-2.18h-5.105v-1.793L623.767,247.303z
			 M624.488,249.489l-2.984,4.812h2.984V249.489z"/>
	</g>
</g>
<g>
	<circle cx="481.024" cy="106.167" r="11.412"/>
	<g>
		<path fill="#FFFFFF" d="M478.033,100.037h6.002v1.75h-4.365l-0.252,2.66c0.367-0.239,0.739-0.418,1.114-0.538
			c0.376-0.119,0.752-0.179,1.13-0.179c0.975,0,1.726,0.362,2.251,1.086c0.526,0.724,0.789,1.557,0.789,2.499
			c0,1.162-0.356,2.104-1.068,2.825c-0.712,0.721-1.638,1.083-2.774,1.083c-0.766,0-1.438-0.148-2.016-0.445
			c-0.578-0.297-1.135-0.755-1.671-1.376l1.843-0.968c0.488,0.708,1.061,1.062,1.715,1.062c0.517,0,0.957-0.197,1.322-0.592
			s0.549-0.919,0.549-1.574c0-0.617-0.163-1.106-0.49-1.47c-0.328-0.363-0.709-0.545-1.145-0.545c-0.315,0-0.607,0.071-0.879,0.212
			c-0.27,0.141-0.562,0.383-0.878,0.728l-1.75-0.337L478.033,100.037z"/>
	</g>
</g>
<g>
	<path fill="#666666" d="M233.817,38.771l-7.78-3.277v-0.853l7.78-3.27v1.016l-6.518,2.677l6.518,2.691V38.771z"/>
	<path fill="#666666" d="M237.251,33.103c0.421-0.377,0.85-0.661,1.287-0.85c0.438-0.189,0.883-0.283,1.337-0.283
		c0.569,0,1.11,0.163,1.624,0.488s0.907,0.805,1.18,1.441c0.273,0.636,0.409,1.333,0.409,2.094c0,0.798-0.141,1.509-0.423,2.133
		c-0.282,0.624-0.68,1.091-1.194,1.402c-0.514,0.311-1.045,0.466-1.595,0.466c-0.454,0-0.9-0.098-1.337-0.294
		c-0.437-0.196-0.866-0.488-1.287-0.875v3.944h-1.04V32.127h1.04L237.251,33.103L237.251,33.103z M237.251,37.914
		c0.454,0.373,0.894,0.652,1.319,0.839c0.426,0.186,0.839,0.279,1.241,0.279c0.607,0,1.131-0.26,1.574-0.781
		c0.442-0.521,0.663-1.3,0.663-2.337c0-0.995-0.226-1.749-0.677-2.262c-0.452-0.514-0.998-0.771-1.639-0.771
		c-0.377,0-0.773,0.094-1.187,0.283s-0.845,0.475-1.294,0.857V37.914L237.251,37.914z"/>
	<path fill="#666666" d="M248.172,39.993c-0.989,0-1.821-0.361-2.495-1.083c-0.674-0.722-1.011-1.692-1.011-2.911
		c0-0.812,0.149-1.533,0.448-2.162c0.299-0.628,0.716-1.097,1.251-1.405c0.535-0.308,1.104-0.462,1.707-0.462
		c0.583,0,1.141,0.159,1.674,0.477c0.533,0.318,0.955,0.799,1.266,1.441c0.311,0.643,0.466,1.361,0.466,2.155
		c0,1.209-0.328,2.17-0.982,2.882C249.842,39.637,249.066,39.993,248.172,39.993z M248.079,39.104c0.631,0,1.179-0.272,1.646-0.817
		c0.466-0.545,0.699-1.327,0.699-2.345c0-1.004-0.227-1.769-0.681-2.294c-0.454-0.525-1.001-0.789-1.642-0.789
		c-0.679,0-1.249,0.268-1.71,0.803s-0.692,1.3-0.692,2.294c0,1.018,0.232,1.797,0.696,2.337
		C246.857,38.834,247.419,39.104,248.079,39.104z"/>
	<path fill="#666666" d="M253.822,28.965h1.047v10.87h-1.047V28.965z"/>
	<path fill="#666666" d="M256.766,32.127h1.08l2.382,6.293l2.389-6.293h1.076l-3.098,8.203c-0.306,0.803-0.534,1.321-0.684,1.552
		c-0.15,0.232-0.333,0.426-0.548,0.581c-0.215,0.155-0.479,0.277-0.792,0.366c-0.312,0.088-0.667,0.133-1.063,0.133
		c-0.287,0-0.621-0.041-1.003-0.122l0.265-0.997c0.282,0.052,0.527,0.079,0.738,0.079c0.578,0,1.003-0.106,1.278-0.319
		s0.531-0.683,0.77-1.409c0.049-0.135,0.093-0.251,0.132-0.349L256.766,32.127z"/>
	<path fill="#666666" d="M265.882,36.759c-0.339-0.296-0.585-0.602-0.738-0.917c-0.153-0.315-0.229-0.686-0.229-1.111
		c0-0.793,0.281-1.452,0.842-1.976c0.562-0.523,1.323-0.785,2.284-0.785c0.397,0,0.772,0.053,1.126,0.158s0.686,0.265,0.997,0.48
		c0.516-0.306,1.169-0.466,1.958-0.48v0.918l-0.373-0.007c-0.449,0-0.8,0.057-1.054,0.172c0.253,0.43,0.38,0.906,0.38,1.427
		c0,0.812-0.28,1.486-0.839,2.022c-0.559,0.535-1.319,0.803-2.28,0.803c-0.296,0-0.641-0.033-1.032-0.1
		c-0.187-0.034-0.323-0.05-0.409-0.05c-0.22,0-0.394,0.055-0.52,0.165c-0.127,0.11-0.19,0.239-0.19,0.387
		c0,0.177,0.107,0.32,0.323,0.43c0.1,0.048,0.423,0.081,0.968,0.1c1.319,0.048,2.293,0.175,2.922,0.38s1.068,0.483,1.319,0.832
		s0.376,0.729,0.376,1.14c0,0.416-0.135,0.796-0.405,1.14c-0.27,0.344-0.671,0.604-1.205,0.778
		c-0.533,0.174-1.096,0.262-1.688,0.262c-0.827,0-1.582-0.112-2.266-0.337c-0.521-0.177-0.921-0.441-1.201-0.792
		c-0.28-0.351-0.419-0.718-0.419-1.101c0-0.296,0.078-0.58,0.233-0.85c0.155-0.27,0.388-0.529,0.699-0.778
		c-0.249-0.163-0.421-0.319-0.516-0.47c-0.096-0.15-0.144-0.321-0.144-0.513c0-0.253,0.083-0.486,0.248-0.699
		C265.212,37.174,265.49,36.965,265.882,36.759z M266.363,39.398c-0.33,0.187-0.577,0.383-0.742,0.588
		c-0.165,0.206-0.247,0.418-0.247,0.638c0,0.301,0.172,0.566,0.516,0.796c0.531,0.359,1.293,0.538,2.287,0.538
		c0.995,0,1.704-0.146,2.13-0.438c0.301-0.206,0.452-0.469,0.452-0.789c0-0.382-0.272-0.678-0.816-0.885
		C269.398,39.638,268.205,39.489,266.363,39.398z M267.991,36.508c0.65,0,1.171-0.185,1.563-0.556
		c0.392-0.37,0.588-0.809,0.588-1.315c0-0.483-0.184-0.896-0.552-1.241c-0.368-0.345-0.882-0.516-1.542-0.516
		c-0.698,0-1.236,0.171-1.613,0.513c-0.377,0.342-0.566,0.771-0.566,1.287c0,0.516,0.192,0.95,0.577,1.301
		C266.831,36.332,267.345,36.508,267.991,36.508z"/>
	<path fill="#666666" d="M276.322,39.993c-0.989,0-1.821-0.361-2.495-1.083c-0.674-0.722-1.011-1.692-1.011-2.911
		c0-0.812,0.149-1.533,0.448-2.162c0.299-0.628,0.716-1.097,1.251-1.405c0.535-0.308,1.104-0.462,1.707-0.462
		c0.583,0,1.141,0.159,1.674,0.477c0.533,0.318,0.955,0.799,1.266,1.441c0.311,0.643,0.466,1.361,0.466,2.155
		c0,1.209-0.328,2.17-0.982,2.882C277.992,39.637,277.216,39.993,276.322,39.993z M276.229,39.104c0.631,0,1.179-0.272,1.646-0.817
		c0.466-0.545,0.699-1.327,0.699-2.345c0-1.004-0.227-1.769-0.681-2.294s-1.001-0.789-1.642-0.789c-0.679,0-1.249,0.268-1.71,0.803
		s-0.692,1.3-0.692,2.294c0,1.018,0.232,1.797,0.696,2.337C275.008,38.834,275.57,39.104,276.229,39.104z"/>
	<path fill="#666666" d="M282.84,33.017c0.564-0.334,1.11-0.593,1.638-0.774c0.528-0.182,0.958-0.272,1.287-0.272
		c0.368,0,0.709,0.078,1.022,0.233c0.313,0.155,0.584,0.423,0.814,0.803c0.23,0.38,0.344,0.852,0.344,1.416v5.414h-1.047v-5.334
		c0-0.531-0.117-0.925-0.352-1.183c-0.234-0.258-0.552-0.387-0.954-0.387c-0.368,0-0.782,0.079-1.241,0.236
		c-0.458,0.158-0.963,0.397-1.513,0.717v5.951h-1.047v-7.708h1.047v0.888H282.84z"/>
	<path fill="#666666" d="M296.169,33.103c0.421-0.377,0.85-0.661,1.287-0.85c0.438-0.189,0.883-0.283,1.337-0.283
		c0.569,0,1.11,0.163,1.624,0.488s0.907,0.805,1.18,1.441c0.273,0.636,0.409,1.333,0.409,2.094c0,0.798-0.141,1.509-0.423,2.133
		s-0.68,1.091-1.194,1.402c-0.514,0.311-1.045,0.466-1.595,0.466c-0.454,0-0.9-0.098-1.337-0.294
		c-0.437-0.196-0.866-0.488-1.287-0.875v3.944h-1.04V32.127h1.04L296.169,33.103L296.169,33.103z M296.169,37.914
		c0.454,0.373,0.894,0.652,1.319,0.839c0.426,0.186,0.839,0.279,1.241,0.279c0.607,0,1.131-0.26,1.574-0.781
		c0.442-0.521,0.663-1.3,0.663-2.337c0-0.995-0.226-1.749-0.677-2.262c-0.452-0.514-0.998-0.771-1.639-0.771
		c-0.377,0-0.773,0.094-1.187,0.283s-0.845,0.475-1.294,0.857V37.914L296.169,37.914z"/>
	<path fill="#666666" d="M307.089,39.993c-0.989,0-1.821-0.361-2.495-1.083c-0.674-0.722-1.011-1.692-1.011-2.911
		c0-0.812,0.149-1.533,0.448-2.162c0.299-0.628,0.716-1.097,1.251-1.405c0.535-0.308,1.104-0.462,1.707-0.462
		c0.583,0,1.141,0.159,1.674,0.477c0.533,0.318,0.955,0.799,1.266,1.441c0.311,0.643,0.466,1.361,0.466,2.155
		c0,1.209-0.328,2.17-0.982,2.882C308.759,39.637,307.983,39.993,307.089,39.993z M306.997,39.104c0.631,0,1.179-0.272,1.646-0.817
		c0.466-0.545,0.699-1.327,0.699-2.345c0-1.004-0.227-1.769-0.681-2.294s-1.001-0.789-1.642-0.789c-0.679,0-1.249,0.268-1.71,0.803
		s-0.692,1.3-0.692,2.294c0,1.018,0.232,1.797,0.696,2.337C305.775,38.834,306.337,39.104,306.997,39.104z"/>
	<path fill="#666666" d="M312.74,29.066h1.047v1.254h-1.047V29.066z M312.74,32.127h1.047v7.708h-1.047V32.127z"/>
	<path fill="#666666" d="M317.73,33.017c0.564-0.334,1.11-0.593,1.638-0.774c0.528-0.182,0.958-0.272,1.287-0.272
		c0.368,0,0.709,0.078,1.022,0.233c0.313,0.155,0.584,0.423,0.814,0.803c0.23,0.38,0.344,0.852,0.344,1.416v5.414h-1.047v-5.334
		c0-0.531-0.117-0.925-0.352-1.183c-0.234-0.258-0.552-0.387-0.954-0.387c-0.368,0-0.782,0.079-1.241,0.236
		c-0.458,0.158-0.963,0.397-1.513,0.717v5.951h-1.047v-7.708h1.047v0.888H317.73z"/>
	<path fill="#666666" d="M325.897,29.317h1.032v2.811h1.915v0.954h-1.915v4.79c0,0.397,0.105,0.707,0.315,0.929
		c0.21,0.222,0.493,0.333,0.846,0.333c0.191,0,0.442-0.038,0.753-0.115v0.939c-0.358,0.043-0.66,0.064-0.903,0.064
		c-0.736,0-1.261-0.153-1.574-0.459s-0.469-0.808-0.469-1.506v-4.976h-1.348v-0.954h1.348V29.317z"/>
	<path fill="#666666" d="M330.888,35.368c-0.377-0.396-0.566-0.839-0.566-1.326c0-0.564,0.232-1.05,0.695-1.459
		c0.464-0.409,1.109-0.613,1.936-0.613c0.55,0,1.07,0.1,1.56,0.3c0.49,0.2,0.907,0.496,1.251,0.886l-0.792,0.67
		c-0.297-0.339-0.603-0.589-0.919-0.749c-0.315-0.16-0.677-0.24-1.083-0.24c-0.522,0-0.917,0.112-1.188,0.337
		c-0.271,0.225-0.405,0.485-0.405,0.782c0,0.253,0.105,0.48,0.315,0.681c0.206,0.201,0.688,0.4,1.448,0.597
		c1.17,0.303,1.959,0.669,2.366,1.099c0.406,0.43,0.61,0.902,0.61,1.418c0,0.616-0.243,1.144-0.728,1.583
		c-0.485,0.439-1.146,0.659-1.983,0.659c-0.612,0-1.176-0.115-1.692-0.345c-0.517-0.23-1.062-0.614-1.635-1.15l0.9-0.627
		c0.43,0.43,0.833,0.738,1.21,0.921c0.377,0.184,0.776,0.276,1.196,0.276c0.535,0,0.949-0.128,1.243-0.384
		c0.293-0.255,0.44-0.556,0.44-0.9c0-0.287-0.11-0.533-0.33-0.738c-0.311-0.292-0.935-0.56-1.872-0.803
		c-0.579-0.153-1.059-0.323-1.441-0.509C331.234,35.644,331.055,35.521,330.888,35.368z"/>
	<path fill="#666666" d="M337.9,32.909h7.787v0.946H337.9V32.909z M337.9,36.272h7.787v0.939H337.9V36.272z"/>
	<path fill="#666666" d="M347.265,28.757h1.068v1.699l-0.215,1.951h-0.638l-0.215-1.951V28.757z M349.165,28.757h1.083v1.699
		l-0.223,1.951h-0.638l-0.222-1.951V28.757L349.165,28.757z"/>
	<path d="M352.083,30.421c0.464-0.554,0.996-0.97,1.596-1.248c0.6-0.277,1.232-0.416,1.896-0.416c1.003,0,1.814,0.285,2.431,0.854
		c0.617,0.569,0.925,1.231,0.925,1.986c0,0.488-0.15,0.948-0.452,1.38s-0.782,0.797-1.441,1.094c0.603,0.22,1.073,0.521,1.413,0.903
		c0.459,0.521,0.688,1.116,0.688,1.785c0,0.526-0.155,1.052-0.466,1.578s-0.755,0.943-1.333,1.251
		c-0.579,0.309-1.214,0.463-1.907,0.463c-0.593,0-1.148-0.11-1.667-0.33c-0.519-0.22-0.979-0.516-1.38-0.889
		c-0.258-0.239-0.516-0.559-0.774-0.961l0.868-0.595c0.459,0.593,0.946,1.025,1.463,1.298c0.516,0.272,1.022,0.409,1.52,0.409
		c0.707,0,1.299-0.219,1.774-0.656c0.475-0.437,0.713-0.929,0.713-1.474c0-0.363-0.129-0.725-0.387-1.086s-0.676-0.648-1.255-0.864
		c-0.578-0.215-1.171-0.323-1.778-0.323c-0.144,0-0.354,0.01-0.631,0.029l0.093-1.083h0.717c1.056,0,1.83-0.195,2.319-0.584
		c0.49-0.39,0.735-0.84,0.735-1.352c0-0.469-0.21-0.888-0.631-1.258c-0.42-0.371-0.963-0.556-1.627-0.556
		c-0.87,0-1.724,0.409-2.56,1.227L352.083,30.421z"/>
	<path d="M364.573,40.051c-1.085,0-1.967-0.416-2.646-1.248c-0.827-1.003-1.241-2.455-1.241-4.352c0-1.941,0.418-3.43,1.255-4.467
		c0.66-0.817,1.525-1.226,2.596-1.226c0.827,0,1.546,0.244,2.158,0.731c0.612,0.488,1.066,1.164,1.362,2.029
		c0.296,0.865,0.445,1.828,0.445,2.89c0,0.851-0.097,1.636-0.291,2.355c-0.194,0.719-0.432,1.287-0.713,1.703
		c-0.282,0.416-0.588,0.737-0.918,0.964s-0.676,0.387-1.04,0.48C365.176,40.003,364.855,40.051,364.573,40.051z M364.609,38.982
		c0.875,0,1.546-0.432,2.015-1.294c0.469-0.863,0.703-1.963,0.703-3.302c0-1.358-0.234-2.464-0.703-3.32
		c-0.468-0.856-1.138-1.284-2.007-1.284c-0.913,0-1.601,0.435-2.062,1.305s-0.692,1.984-0.692,3.341
		c0,0.994,0.129,1.856,0.387,2.585s0.608,1.239,1.05,1.531C363.743,38.836,364.179,38.982,364.609,38.982z"/>
	<path d="M370.769,38.187h1.405v1.649l-1.076,2.166h-0.597l0.955-2.166h-0.688L370.769,38.187L370.769,38.187z"/>
	<path d="M377.917,28.965h1.047v9.924h1.75v0.946h-4.768v-0.946h1.972v-8.705c-0.984,0.22-1.642,0.333-1.972,0.337v-0.796
		C376.787,29.601,377.444,29.348,377.917,28.965z"/>
	<path d="M387.525,40.051c-1.085,0-1.967-0.416-2.646-1.248c-0.827-1.003-1.241-2.455-1.241-4.352c0-1.941,0.418-3.43,1.255-4.467
		c0.66-0.817,1.525-1.226,2.596-1.226c0.827,0,1.546,0.244,2.158,0.731c0.612,0.488,1.066,1.164,1.362,2.029
		c0.296,0.865,0.445,1.828,0.445,2.89c0,0.851-0.097,1.636-0.291,2.355c-0.194,0.719-0.432,1.287-0.713,1.703
		c-0.282,0.416-0.588,0.737-0.918,0.964c-0.33,0.227-0.676,0.387-1.04,0.48C388.128,40.003,387.807,40.051,387.525,40.051z
		 M387.561,38.982c0.875,0,1.546-0.432,2.015-1.294c0.469-0.863,0.703-1.963,0.703-3.302c0-1.358-0.234-2.464-0.703-3.32
		c-0.468-0.856-1.138-1.284-2.007-1.284c-0.913,0-1.601,0.435-2.062,1.305s-0.692,1.984-0.692,3.341
		c0,0.994,0.129,1.856,0.387,2.585c0.258,0.729,0.608,1.239,1.05,1.531S387.131,38.982,387.561,38.982z"/>
	<path d="M396.703,40.051c-1.085,0-1.967-0.416-2.646-1.248c-0.827-1.003-1.241-2.455-1.241-4.352c0-1.941,0.418-3.43,1.255-4.467
		c0.66-0.817,1.525-1.226,2.596-1.226c0.827,0,1.546,0.244,2.158,0.731c0.612,0.488,1.066,1.164,1.362,2.029
		c0.296,0.865,0.445,1.828,0.445,2.89c0,0.851-0.097,1.636-0.291,2.355c-0.194,0.719-0.432,1.287-0.713,1.703
		c-0.282,0.416-0.588,0.737-0.918,0.964s-0.676,0.387-1.04,0.48C397.306,40.003,396.985,40.051,396.703,40.051z M396.739,38.982
		c0.875,0,1.546-0.432,2.015-1.294c0.469-0.863,0.703-1.963,0.703-3.302c0-1.358-0.234-2.464-0.703-3.32
		c-0.468-0.856-1.138-1.284-2.007-1.284c-0.913,0-1.601,0.435-2.062,1.305s-0.692,1.984-0.692,3.341
		c0,0.994,0.129,1.856,0.387,2.585c0.258,0.729,0.608,1.239,1.05,1.531C395.873,38.836,396.309,38.982,396.739,38.982z"/>
	<path fill="#666666" d="M407.157,30.421c0.464-0.554,0.996-0.97,1.596-1.248c0.6-0.277,1.232-0.416,1.896-0.416
		c1.003,0,1.814,0.285,2.431,0.854c0.617,0.569,0.925,1.231,0.925,1.986c0,0.488-0.15,0.948-0.452,1.38
		c-0.302,0.432-0.782,0.797-1.441,1.094c0.603,0.22,1.073,0.521,1.413,0.903c0.459,0.521,0.688,1.116,0.688,1.785
		c0,0.526-0.155,1.052-0.466,1.578s-0.755,0.943-1.333,1.251c-0.579,0.309-1.214,0.463-1.907,0.463c-0.593,0-1.148-0.11-1.667-0.33
		c-0.519-0.22-0.979-0.516-1.38-0.889c-0.258-0.239-0.516-0.559-0.774-0.961l0.868-0.595c0.459,0.593,0.946,1.025,1.463,1.298
		c0.516,0.272,1.022,0.409,1.52,0.409c0.707,0,1.299-0.219,1.774-0.656s0.713-0.929,0.713-1.474c0-0.363-0.129-0.725-0.387-1.086
		c-0.258-0.361-0.676-0.648-1.255-0.864c-0.578-0.215-1.171-0.323-1.778-0.323c-0.144,0-0.354,0.01-0.631,0.029l0.093-1.083h0.717
		c1.056,0,1.83-0.195,2.319-0.584c0.49-0.39,0.735-0.84,0.735-1.352c0-0.469-0.21-0.888-0.631-1.258
		c-0.42-0.371-0.963-0.556-1.627-0.556c-0.87,0-1.724,0.409-2.56,1.227L407.157,30.421z"/>
	<path fill="#666666" d="M419.648,40.051c-1.085,0-1.967-0.416-2.646-1.248c-0.827-1.003-1.241-2.455-1.241-4.352
		c0-1.941,0.418-3.43,1.255-4.467c0.66-0.817,1.525-1.226,2.596-1.226c0.827,0,1.546,0.244,2.158,0.731
		c0.612,0.488,1.066,1.164,1.362,2.029c0.296,0.865,0.445,1.828,0.445,2.89c0,0.851-0.097,1.636-0.291,2.355
		c-0.194,0.719-0.432,1.287-0.713,1.703c-0.282,0.416-0.588,0.737-0.918,0.964s-0.676,0.387-1.04,0.48
		C420.251,40.003,419.93,40.051,419.648,40.051z M419.684,38.982c0.875,0,1.546-0.432,2.015-1.294
		c0.469-0.863,0.703-1.963,0.703-3.302c0-1.358-0.234-2.464-0.703-3.32c-0.468-0.856-1.138-1.284-2.007-1.284
		c-0.913,0-1.601,0.435-2.062,1.305s-0.692,1.984-0.692,3.341c0,0.994,0.129,1.856,0.387,2.585c0.258,0.729,0.608,1.239,1.05,1.531
		S419.254,38.982,419.684,38.982z"/>
	<path fill="#666666" d="M425.843,38.187h1.405v1.649l-1.076,2.166h-0.597l0.955-2.166h-0.688L425.843,38.187L425.843,38.187z"/>
	<path fill="#666666" d="M433.815,28.965h1.656v7.228h2.029v1.062h-2.029v2.581h-1.031v-2.581h-5.092v-1.062L433.815,28.965z
		 M434.44,29.812l-3.958,6.381h3.958V29.812z"/>
	<path fill="#666666" d="M439.997,34.544c0.373-0.488,0.842-0.867,1.409-1.137c0.566-0.27,1.152-0.405,1.761-0.405
		c0.956,0,1.734,0.305,2.333,0.914c0.6,0.609,0.9,1.404,0.9,2.384c0,0.861-0.239,1.64-0.718,2.338
		c-0.641,0.941-1.556,1.413-2.746,1.413c-0.755,0-1.454-0.204-2.098-0.61c-0.643-0.406-1.144-1.017-1.502-1.832
		s-0.538-1.77-0.538-2.864c0-1.167,0.207-2.231,0.62-3.194c0.413-0.963,0.989-1.669,1.728-2.119
		c0.738-0.449,1.538-0.674,2.398-0.674c0.774,0,1.546,0.234,2.316,0.703l-0.646,0.796c-0.641-0.32-1.224-0.48-1.75-0.48
		c-0.97,0-1.792,0.395-2.463,1.183C440.333,31.748,439.997,32.942,439.997,34.544z M440.083,35.877
		c0.101,0.636,0.253,1.145,0.459,1.527c0.292,0.54,0.665,0.951,1.119,1.233c0.344,0.215,0.753,0.322,1.226,0.322
		c0.688,0,1.272-0.25,1.753-0.752c0.481-0.502,0.722-1.133,0.722-1.893c0-0.684-0.213-1.239-0.639-1.667
		c-0.425-0.428-0.97-0.642-1.635-0.642c-0.569,0-1.103,0.156-1.603,0.466S440.518,35.251,440.083,35.877z"/>
	<path fill="#666666" d="M452.889,34.078c0.693,0.244,1.222,0.488,1.584,0.731c0.484,0.32,0.836,0.67,1.06,1.05
		c0.223,0.38,0.334,0.788,0.334,1.223c0,0.774-0.326,1.434-0.978,1.979c-0.782,0.66-1.825,0.99-3.125,0.99
		c-1.296,0-2.292-0.296-2.986-0.889c-0.695-0.593-1.043-1.276-1.043-2.051c0-0.43,0.111-0.855,0.337-1.276
		c0.225-0.42,0.559-0.793,1.003-1.119c0.311-0.225,0.75-0.438,1.318-0.638c-0.765-0.363-1.323-0.754-1.678-1.172
		c-0.354-0.418-0.531-0.896-0.531-1.43c0-0.717,0.322-1.349,0.966-1.896c0.643-0.547,1.55-0.821,2.721-0.821
		c1.109,0,1.969,0.27,2.58,0.811c0.613,0.54,0.918,1.176,0.918,1.907c0,0.55-0.215,1.071-0.646,1.563
		C454.293,33.532,453.682,33.877,452.889,34.078z M451.297,34.451c-0.816,0.301-1.419,0.691-1.807,1.168
		c-0.388,0.478-0.581,0.957-0.581,1.434c0,0.5,0.244,0.942,0.73,1.328c0.488,0.386,1.218,0.579,2.188,0.579
		c0.567,0,1.088-0.095,1.559-0.285c0.472-0.19,0.806-0.438,1-0.742c0.197-0.305,0.295-0.593,0.295-0.866
		c0-0.363-0.164-0.715-0.494-1.054C453.752,35.564,452.789,35.043,451.297,34.451z M451.799,33.662
		c0.707-0.32,1.207-0.57,1.498-0.75c0.293-0.179,0.514-0.381,0.668-0.606c0.152-0.225,0.229-0.473,0.229-0.746
		c0-0.47-0.207-0.882-0.619-1.234c-0.414-0.353-1.015-0.529-1.797-0.529c-0.789,0-1.39,0.171-1.8,0.515s-0.616,0.743-0.616,1.199
		c0,0.368,0.153,0.71,0.462,1.025C450.132,32.852,450.791,33.227,451.799,33.662z"/>
	<path fill="#666666" d="M465.938,28.965h1.657v7.228h2.029v1.062h-2.029v2.581h-1.032v-2.581h-5.092v-1.062L465.938,28.965z
		 M466.562,29.812l-3.959,6.381h3.959V29.812z"/>
	<path fill="#666666" d="M471.338,28.965h6.819v1.04l-4.675,9.831h-1.119l4.689-9.831h-5.716L471.338,28.965L471.338,28.965z"/>
	<path fill="#666666" d="M480.588,30.421c0.463-0.554,0.995-0.97,1.595-1.248c0.601-0.278,1.232-0.416,1.896-0.416
		c1.004,0,1.813,0.285,2.431,0.854c0.617,0.569,0.926,1.231,0.926,1.986c0,0.488-0.15,0.948-0.451,1.38
		c-0.302,0.432-0.781,0.797-1.441,1.094c0.604,0.22,1.073,0.521,1.413,0.903c0.458,0.521,0.688,1.116,0.688,1.785
		c0,0.526-0.154,1.052-0.466,1.578c-0.311,0.526-0.755,0.943-1.333,1.251c-0.579,0.309-1.215,0.463-1.907,0.463
		c-0.594,0-1.148-0.11-1.668-0.33c-0.519-0.22-0.979-0.516-1.38-0.889c-0.258-0.239-0.517-0.559-0.773-0.961l0.867-0.595
		c0.459,0.593,0.946,1.025,1.463,1.298c0.517,0.272,1.022,0.409,1.521,0.409c0.707,0,1.299-0.219,1.774-0.656
		c0.475-0.437,0.714-0.929,0.714-1.474c0-0.363-0.13-0.725-0.388-1.086c-0.259-0.361-0.678-0.648-1.255-0.864
		c-0.578-0.216-1.172-0.323-1.778-0.323c-0.145,0-0.354,0.01-0.631,0.029l0.094-1.083h0.717c1.058,0,1.829-0.195,2.319-0.584
		s0.734-0.84,0.734-1.352c0-0.469-0.211-0.888-0.631-1.258c-0.421-0.371-0.964-0.556-1.628-0.556c-0.87,0-1.724,0.409-2.56,1.227
		L480.588,30.421z"/>
	<path fill="#666666" d="M490.095,38.187h1.405v1.649l-1.075,2.166h-0.597l0.955-2.166h-0.688V38.187z"/>
	<path fill="#666666" d="M498.068,28.965h1.656v7.228h2.029v1.062h-2.029v2.581h-1.032v-2.581h-5.092v-1.062L498.068,28.965z
		 M498.692,29.812l-3.958,6.381h3.958V29.812z"/>
	<path fill="#666666" d="M504.249,34.544c0.373-0.488,0.843-0.867,1.409-1.137c0.565-0.27,1.152-0.405,1.761-0.405
		c0.956,0,1.733,0.305,2.334,0.914s0.899,1.404,0.899,2.384c0,0.861-0.239,1.64-0.718,2.338c-0.641,0.941-1.556,1.413-2.745,1.413
		c-0.757,0-1.455-0.204-2.099-0.61c-0.643-0.406-1.144-1.017-1.502-1.832s-0.538-1.77-0.538-2.864c0-1.167,0.207-2.231,0.62-3.194
		c0.414-0.963,0.99-1.669,1.729-2.119c0.738-0.45,1.537-0.674,2.397-0.674c0.774,0,1.546,0.234,2.315,0.703l-0.646,0.796
		c-0.641-0.32-1.224-0.48-1.75-0.48c-0.971,0-1.791,0.395-2.463,1.183C504.585,31.748,504.249,32.942,504.249,34.544z
		 M504.336,35.877c0.1,0.636,0.253,1.145,0.458,1.527c0.292,0.54,0.665,0.951,1.119,1.233c0.344,0.215,0.753,0.322,1.226,0.322
		c0.688,0,1.273-0.25,1.754-0.752c0.481-0.502,0.722-1.133,0.722-1.893c0-0.684-0.213-1.239-0.64-1.667
		c-0.426-0.428-0.971-0.642-1.635-0.642c-0.568,0-1.104,0.156-1.603,0.466C505.237,34.783,504.771,35.251,504.336,35.877z"/>
	<path fill="#666666" d="M517.142,34.078c0.692,0.244,1.222,0.488,1.584,0.731c0.483,0.32,0.837,0.67,1.059,1.05
		c0.223,0.38,0.334,0.788,0.334,1.223c0,0.774-0.325,1.434-0.977,1.979c-0.783,0.66-1.825,0.99-3.126,0.99
		c-1.295,0-2.291-0.296-2.985-0.889c-0.695-0.593-1.043-1.276-1.043-2.051c0-0.43,0.111-0.855,0.337-1.276
		c0.225-0.42,0.559-0.793,1.004-1.119c0.311-0.225,0.75-0.438,1.318-0.638c-0.766-0.363-1.323-0.754-1.678-1.172
		c-0.354-0.418-0.531-0.896-0.531-1.43c0-0.717,0.321-1.349,0.966-1.896c0.643-0.547,1.55-0.821,2.721-0.821
		c1.109,0,1.97,0.27,2.581,0.811c0.612,0.54,0.918,1.176,0.918,1.907c0,0.55-0.215,1.071-0.646,1.563
		C518.547,33.53,517.935,33.877,517.142,34.078z M515.55,34.451c-0.816,0.301-1.42,0.691-1.807,1.168
		c-0.388,0.478-0.581,0.957-0.581,1.434c0,0.5,0.243,0.942,0.73,1.328c0.487,0.386,1.217,0.579,2.188,0.579
		c0.569,0,1.089-0.095,1.56-0.285c0.472-0.19,0.806-0.438,1-0.742c0.196-0.305,0.294-0.593,0.294-0.866
		c0-0.363-0.164-0.715-0.493-1.054C518.004,35.564,517.041,35.043,515.55,34.451z M516.052,33.662c0.707-0.32,1.207-0.57,1.498-0.75
		c0.292-0.179,0.515-0.381,0.667-0.606c0.153-0.225,0.229-0.473,0.229-0.746c0-0.47-0.207-0.882-0.62-1.234
		c-0.413-0.353-1.014-0.529-1.796-0.529c-0.789,0-1.39,0.171-1.8,0.515c-0.411,0.344-0.617,0.743-0.617,1.199
		c0,0.368,0.153,0.71,0.463,1.025C514.385,32.851,515.043,33.227,516.052,33.662z"/>
	<path fill="#666666" d="M530.19,28.965h1.656v7.228h2.029v1.062h-2.029v2.581h-1.032v-2.581h-5.092v-1.062L530.19,28.965z
		 M530.814,29.812l-3.958,6.381h3.958V29.812z"/>
	<path fill="#666666" d="M535.59,28.965h6.819v1.04l-4.675,9.831h-1.119l4.689-9.831h-5.716L535.59,28.965L535.59,28.965z"/>
	<path fill="#666666" d="M544.841,30.421c0.463-0.554,0.995-0.97,1.595-1.248c0.601-0.278,1.232-0.416,1.896-0.416
		c1.004,0,1.814,0.285,2.431,0.854c0.617,0.569,0.927,1.231,0.927,1.986c0,0.488-0.151,0.948-0.452,1.38
		c-0.302,0.432-0.781,0.797-1.441,1.094c0.604,0.22,1.073,0.521,1.413,0.903c0.458,0.521,0.688,1.116,0.688,1.785
		c0,0.526-0.155,1.052-0.467,1.578c-0.311,0.526-0.755,0.943-1.333,1.251c-0.578,0.309-1.215,0.463-1.907,0.463
		c-0.594,0-1.148-0.11-1.667-0.33c-0.52-0.22-0.979-0.516-1.381-0.889c-0.258-0.239-0.517-0.559-0.773-0.961l0.867-0.595
		c0.459,0.593,0.946,1.025,1.463,1.298c0.517,0.272,1.022,0.409,1.521,0.409c0.707,0,1.3-0.219,1.774-0.656s0.714-0.929,0.714-1.474
		c0-0.363-0.13-0.725-0.388-1.086s-0.678-0.648-1.255-0.864c-0.578-0.216-1.172-0.323-1.778-0.323c-0.145,0-0.354,0.01-0.631,0.029
		l0.094-1.083h0.717c1.058,0,1.829-0.195,2.319-0.584s0.734-0.84,0.734-1.352c0-0.469-0.211-0.888-0.631-1.258
		c-0.421-0.371-0.964-0.556-1.628-0.556c-0.87,0-1.724,0.409-2.56,1.227L544.841,30.421z"/>
	<path fill="#666666" d="M554.348,38.187h1.405v1.649l-1.075,2.166h-0.597l0.955-2.166h-0.688V38.187L554.348,38.187z"/>
	<path fill="#666666" d="M558.413,31.819c0.201-0.583,0.435-1.054,0.703-1.413c0.406-0.531,0.882-0.938,1.427-1.223
		c0.545-0.284,1.102-0.427,1.67-0.427c0.908,0,1.68,0.312,2.312,0.936c0.634,0.624,0.949,1.382,0.949,2.276
		c0,0.507-0.096,0.945-0.286,1.316c-0.19,0.37-0.486,0.744-0.886,1.122c-0.398,0.377-1.082,0.911-2.048,1.599
		c-0.965,0.688-1.637,1.24-2.015,1.653c-0.377,0.414-0.644,0.821-0.796,1.223h6.072v0.954h-7.19v-0.868
		c0-0.196,0.103-0.48,0.309-0.853c0.291-0.531,0.689-1.035,1.193-1.513s1.216-1.042,2.133-1.692c0.665-0.474,1.121-0.822,1.37-1.047
		c0.344-0.325,0.594-0.641,0.749-0.947s0.233-0.621,0.233-0.946c0-0.617-0.202-1.134-0.606-1.552
		c-0.403-0.418-0.89-0.627-1.459-0.627c-0.611,0-1.15,0.195-1.617,0.584c-0.466,0.39-0.876,0.955-1.229,1.696L558.413,31.819z"/>
	<path fill="#666666" d="M570.674,28.965h1.047v9.924h1.75v0.946h-4.769v-0.946h1.972v-8.705c-0.983,0.22-1.642,0.333-1.972,0.337
		v-0.796C569.544,29.601,570.201,29.348,570.674,28.965z"/>
	<path fill="#666666" d="M581.395,34.078c0.692,0.244,1.222,0.488,1.584,0.731c0.483,0.32,0.837,0.67,1.059,1.05
		c0.223,0.38,0.334,0.788,0.334,1.223c0,0.774-0.325,1.434-0.977,1.979c-0.783,0.66-1.825,0.99-3.126,0.99
		c-1.295,0-2.291-0.296-2.985-0.889c-0.695-0.593-1.043-1.276-1.043-2.051c0-0.43,0.111-0.855,0.337-1.276
		c0.225-0.42,0.559-0.793,1.004-1.119c0.311-0.225,0.75-0.438,1.319-0.638c-0.767-0.363-1.324-0.754-1.679-1.172
		c-0.354-0.418-0.53-0.896-0.53-1.43c0-0.717,0.32-1.349,0.965-1.896c0.643-0.547,1.55-0.821,2.721-0.821
		c1.109,0,1.97,0.27,2.581,0.811c0.612,0.54,0.918,1.176,0.918,1.907c0,0.55-0.215,1.071-0.646,1.563
		C582.8,33.53,582.188,33.877,581.395,34.078z M579.803,34.451c-0.816,0.301-1.42,0.691-1.807,1.168
		c-0.388,0.478-0.581,0.957-0.581,1.434c0,0.5,0.243,0.942,0.731,1.328c0.486,0.386,1.216,0.579,2.187,0.579
		c0.569,0,1.089-0.095,1.56-0.285c0.472-0.19,0.806-0.438,1-0.742c0.196-0.305,0.295-0.593,0.295-0.866
		c0-0.363-0.164-0.715-0.494-1.054C582.257,35.564,581.294,35.043,579.803,34.451z M580.305,33.662
		c0.707-0.32,1.207-0.57,1.498-0.75c0.292-0.179,0.515-0.381,0.667-0.606c0.153-0.225,0.229-0.473,0.229-0.746
		c0-0.47-0.207-0.882-0.62-1.234c-0.413-0.353-1.013-0.529-1.796-0.529c-0.789,0-1.39,0.171-1.8,0.515
		c-0.411,0.344-0.617,0.743-0.617,1.199c0,0.368,0.153,0.71,0.463,1.025C578.638,32.851,579.296,33.227,580.305,33.662z"/>
	<path fill="#666666" d="M590.737,30.421c0.463-0.554,0.995-0.97,1.595-1.248c0.6-0.278,1.232-0.416,1.896-0.416
		c1.005,0,1.814,0.285,2.432,0.854c0.617,0.569,0.926,1.231,0.926,1.986c0,0.488-0.151,0.948-0.452,1.38s-0.781,0.797-1.44,1.094
		c0.603,0.22,1.072,0.521,1.413,0.903c0.458,0.521,0.688,1.116,0.688,1.785c0,0.526-0.155,1.052-0.466,1.578
		c-0.312,0.526-0.755,0.943-1.333,1.251c-0.579,0.309-1.215,0.463-1.908,0.463c-0.593,0-1.148-0.11-1.667-0.33
		c-0.519-0.22-0.979-0.516-1.38-0.889c-0.258-0.239-0.518-0.559-0.774-0.961l0.867-0.595c0.459,0.593,0.947,1.025,1.463,1.298
		c0.518,0.272,1.023,0.409,1.521,0.409c0.707,0,1.299-0.219,1.773-0.656c0.476-0.437,0.714-0.929,0.714-1.474
		c0-0.363-0.13-0.725-0.388-1.086s-0.677-0.648-1.255-0.864c-0.578-0.216-1.171-0.323-1.778-0.323c-0.144,0-0.354,0.01-0.631,0.029
		l0.095-1.083h0.717c1.057,0,1.829-0.195,2.318-0.584c0.49-0.389,0.735-0.84,0.735-1.352c0-0.469-0.211-0.888-0.631-1.258
		c-0.421-0.371-0.964-0.556-1.628-0.556c-0.87,0-1.725,0.409-2.561,1.227L590.737,30.421z"/>
	<path fill="#666666" d="M603.229,40.051c-1.086,0-1.969-0.416-2.646-1.248c-0.826-1.003-1.24-2.455-1.24-4.352
		c0-1.941,0.418-3.43,1.255-4.467c0.66-0.817,1.525-1.226,2.597-1.226c0.827,0,1.546,0.244,2.158,0.731
		c0.611,0.488,1.065,1.164,1.361,2.029c0.297,0.865,0.444,1.828,0.444,2.89c0,0.851-0.097,1.636-0.29,2.355
		c-0.193,0.719-0.432,1.287-0.714,1.703c-0.281,0.416-0.588,0.737-0.917,0.964c-0.33,0.227-0.678,0.387-1.04,0.48
		C603.833,40.003,603.51,40.051,603.229,40.051z M603.263,38.982c0.875,0,1.547-0.432,2.017-1.294
		c0.468-0.863,0.702-1.963,0.702-3.302c0-1.358-0.234-2.464-0.702-3.32c-0.47-0.856-1.139-1.284-2.008-1.284
		c-0.913,0-1.602,0.435-2.062,1.305c-0.462,0.87-0.692,1.984-0.692,3.341c0,0.994,0.13,1.856,0.389,2.585
		c0.258,0.729,0.607,1.239,1.05,1.531C602.396,38.836,602.833,38.982,603.263,38.982z"/>
	<path fill="#666666" d="M608.892,31.819c0.201-0.583,0.436-1.054,0.703-1.413c0.406-0.531,0.882-0.938,1.428-1.223
		c0.545-0.284,1.102-0.427,1.67-0.427c0.907,0,1.68,0.312,2.312,0.936c0.634,0.624,0.95,1.382,0.95,2.276
		c0,0.507-0.096,0.945-0.287,1.316c-0.19,0.37-0.486,0.744-0.885,1.122c-0.399,0.377-1.082,0.911-2.048,1.599
		c-0.965,0.688-1.638,1.24-2.016,1.653c-0.377,0.414-0.643,0.821-0.796,1.223h6.073v0.954h-7.191v-0.868
		c0-0.196,0.104-0.48,0.31-0.853c0.291-0.531,0.688-1.035,1.192-1.513s1.217-1.042,2.134-1.692c0.665-0.474,1.12-0.822,1.37-1.047
		c0.344-0.325,0.594-0.641,0.748-0.947c0.155-0.306,0.233-0.621,0.233-0.946c0-0.617-0.202-1.134-0.606-1.552
		c-0.402-0.418-0.89-0.627-1.459-0.627c-0.61,0-1.149,0.195-1.616,0.584c-0.466,0.39-0.876,0.955-1.229,1.696L608.892,31.819z"/>
	<path fill="#666666" d="M618.6,38.187h1.405v1.649l-1.075,2.166h-0.597l0.955-2.166H618.6V38.187z"/>
	<path fill="#666666" d="M622.867,30.421c0.463-0.554,0.995-0.97,1.595-1.248c0.6-0.278,1.232-0.416,1.896-0.416
		c1.004,0,1.813,0.285,2.431,0.854c0.617,0.569,0.926,1.231,0.926,1.986c0,0.488-0.15,0.948-0.452,1.38
		c-0.301,0.432-0.78,0.797-1.44,1.094c0.603,0.22,1.072,0.521,1.413,0.903c0.458,0.521,0.688,1.116,0.688,1.785
		c0,0.526-0.155,1.052-0.466,1.578s-0.755,0.943-1.333,1.251c-0.579,0.309-1.215,0.463-1.908,0.463c-0.593,0-1.147-0.11-1.667-0.33
		c-0.519-0.22-0.979-0.516-1.38-0.889c-0.258-0.239-0.517-0.559-0.774-0.961l0.867-0.595c0.459,0.593,0.947,1.025,1.463,1.298
		c0.518,0.272,1.023,0.409,1.521,0.409c0.707,0,1.299-0.219,1.773-0.656c0.476-0.437,0.715-0.929,0.715-1.474
		c0-0.363-0.131-0.725-0.389-1.086s-0.677-0.648-1.255-0.864c-0.578-0.216-1.171-0.323-1.778-0.323c-0.144,0-0.354,0.01-0.631,0.029
		l0.095-1.083h0.717c1.057,0,1.829-0.195,2.318-0.584c0.49-0.389,0.735-0.84,0.735-1.352c0-0.469-0.211-0.888-0.631-1.258
		c-0.421-0.371-0.964-0.556-1.628-0.556c-0.87,0-1.724,0.409-2.561,1.227L622.867,30.421z"/>
	<path fill="#666666" d="M635.357,40.051c-1.086,0-1.969-0.416-2.646-1.248c-0.826-1.003-1.24-2.455-1.24-4.352
		c0-1.941,0.418-3.43,1.255-4.467c0.66-0.817,1.525-1.226,2.597-1.226c0.827,0,1.546,0.244,2.158,0.731
		c0.611,0.488,1.065,1.164,1.361,2.029c0.297,0.865,0.444,1.828,0.444,2.89c0,0.851-0.097,1.636-0.29,2.355
		c-0.193,0.719-0.432,1.287-0.714,1.703c-0.281,0.416-0.588,0.737-0.917,0.964c-0.33,0.227-0.677,0.387-1.04,0.48
		C635.962,40.003,635.64,40.051,635.357,40.051z M635.393,38.982c0.875,0,1.548-0.432,2.017-1.294
		c0.468-0.863,0.702-1.963,0.702-3.302c0-1.358-0.234-2.464-0.702-3.32c-0.469-0.856-1.138-1.284-2.008-1.284
		c-0.913,0-1.602,0.435-2.062,1.305c-0.462,0.87-0.692,1.984-0.692,3.341c0,0.994,0.131,1.856,0.389,2.585s0.607,1.239,1.05,1.531
		C634.526,38.836,634.963,38.982,635.393,38.982z"/>
	<path fill="#666666" d="M645.115,28.757h1.067v1.699l-0.215,1.951h-0.638l-0.216-1.951L645.115,28.757L645.115,28.757z
		 M647.016,28.757h1.083v1.699l-0.223,1.951h-0.638l-0.224-1.951L647.016,28.757L647.016,28.757z"/>
	<path fill="#666666" d="M654.691,28.965h0.976l-5.228,10.87h-0.976L654.691,28.965z"/>
	<path fill="#666666" d="M657.463,31.371l7.779,3.279v0.851l-7.779,3.27v-1.018l6.519-2.674l-6.519-2.689V31.371z"/>
</g>
<path fill="none" stroke="#333333" stroke-width="1.2237" stroke-miterlimit="10" d="M286.143,153.134
	c0,0,86.078-30.697,86.078-103.508"/>
<path fill="none" stroke="#333333" stroke-width="1.2237" stroke-miterlimit="10" d="M259.692,432.649
	c0,0-142.617-331.271,50.119-331.271c135.833,0,116.865-51.754,116.865-51.754"/>
<path fill="none" stroke="#333333" stroke-width="1.2237" stroke-miterlimit="10" d="M631.037,446.894
	c0,0,189.063-345.514,44.666-345.514c-144.399,0-183.269-51.754-183.269-51.754"/>
<path fill="none" stroke="#333333" stroke-width="1.2237" stroke-miterlimit="10" d="M635.075,238.078
	c0,0,17.987-97.286-79.297-188.453"/>
<path fill="none" stroke="#333333" stroke-width="1.2237" stroke-miterlimit="10" d="M498.875,100.037
	c0,0,70.307,15.057,120.508-50.412"/>
<g>
	<g>
		<path fill="#333333" d="M748.039,398.158c1.021-1.222,2.193-2.139,3.516-2.748c1.321-0.611,2.715-0.917,4.181-0.917
			c2.211,0,3.997,0.626,5.354,1.88c1.359,1.254,2.039,2.713,2.039,4.377c0,1.074-0.332,2.089-0.996,3.042
			c-0.664,0.954-1.723,1.757-3.176,2.409c1.327,0.484,2.365,1.147,3.113,1.991c1.011,1.147,1.517,2.46,1.517,3.935
			c0,1.159-0.343,2.318-1.027,3.477c-0.684,1.159-1.665,2.078-2.938,2.759c-1.275,0.679-2.676,1.019-4.203,1.019
			c-1.307,0-2.531-0.243-3.674-0.728c-1.145-0.484-2.157-1.138-3.042-1.959c-0.569-0.526-1.138-1.232-1.706-2.117l1.912-1.312
			c1.011,1.308,2.085,2.261,3.223,2.86s2.254,0.9,3.351,0.9c1.559,0,2.862-0.482,3.91-1.445c1.049-0.965,1.572-2.047,1.572-3.248
			c0-0.8-0.284-1.598-0.854-2.395c-0.569-0.795-1.491-1.43-2.766-1.902c-1.274-0.476-2.582-0.711-3.919-0.711
			c-0.314,0-0.78,0.021-1.391,0.062l0.206-2.386h1.58c2.328,0,4.031-0.429,5.11-1.288c1.08-0.858,1.619-1.852,1.619-2.979
			c0-1.032-0.463-1.957-1.391-2.773c-0.927-0.816-2.123-1.225-3.586-1.225c-1.918,0-3.799,0.899-5.643,2.702L748.039,398.158z"/>
		<path fill="#333333" d="M775.564,419.38c-2.393,0-4.336-0.917-5.831-2.749c-1.822-2.213-2.733-5.41-2.733-9.592
			c0-4.277,0.922-7.559,2.766-9.844c1.453-1.803,3.359-2.702,5.721-2.702c1.821,0,3.406,0.537,4.756,1.61
			c1.349,1.075,2.349,2.565,3.003,4.473c0.651,1.907,0.979,4.029,0.979,6.368c0,1.875-0.213,3.604-0.639,5.189
			c-0.428,1.586-0.951,2.836-1.572,3.753c-0.622,0.917-1.297,1.625-2.022,2.126c-0.728,0.5-1.49,0.854-2.291,1.06
			C776.896,419.277,776.186,419.38,775.564,419.38z M775.643,417.025c1.929,0,3.408-0.951,4.441-2.853
			c1.031-1.901,1.548-4.327,1.548-7.276c0-2.991-0.517-5.431-1.548-7.315c-1.033-1.886-2.508-2.829-4.425-2.829
			c-2.013,0-3.526,0.959-4.543,2.877c-1.018,1.917-1.524,4.371-1.524,7.363c0,2.19,0.284,4.09,0.854,5.695
			c0.567,1.606,1.34,2.73,2.313,3.373C773.734,416.704,774.695,417.025,775.643,417.025z"/>
		<path fill="#333333" d="M789.217,415.271h3.098v3.635l-2.37,4.771h-1.315l2.105-4.771h-1.518V415.271L789.217,415.271z"/>
		<path fill="#333333" d="M804.971,394.951h2.308v21.869h3.854v2.086h-10.508v-2.086h4.346v-19.185
			c-2.171,0.485-3.619,0.732-4.346,0.743v-1.754C802.479,396.353,803.928,395.794,804.971,394.951z"/>
		<path fill="#333333" d="M826.144,419.38c-2.392,0-4.335-0.917-5.831-2.749c-1.821-2.213-2.732-5.41-2.732-9.592
			c0-4.277,0.922-7.559,2.765-9.844c1.454-1.803,3.361-2.702,5.722-2.702c1.821,0,3.407,0.537,4.756,1.61
			c1.349,1.075,2.35,2.565,3.002,4.473s0.979,4.029,0.979,6.368c0,1.875-0.214,3.604-0.641,5.189
			c-0.426,1.586-0.951,2.836-1.572,3.753s-1.295,1.625-2.021,2.126c-0.729,0.5-1.492,0.854-2.292,1.06
			C827.476,419.277,826.765,419.38,826.144,419.38z M826.223,417.025c1.929,0,3.407-0.951,4.439-2.853
			c1.033-1.901,1.549-4.327,1.549-7.276c0-2.991-0.516-5.431-1.549-7.315c-1.032-1.886-2.507-2.829-4.424-2.829
			c-2.013,0-3.526,0.959-4.543,2.877c-1.018,1.917-1.525,4.371-1.525,7.363c0,2.19,0.285,4.09,0.854,5.695
			c0.568,1.606,1.341,2.73,2.313,3.373C824.312,416.704,825.274,417.025,826.223,417.025z"/>
		<path fill="#333333" d="M846.369,419.38c-2.393,0-4.335-0.917-5.831-2.749c-1.822-2.213-2.733-5.41-2.733-9.592
			c0-4.277,0.922-7.559,2.767-9.844c1.453-1.803,3.358-2.702,5.72-2.702c1.822,0,3.407,0.537,4.756,1.61
			c1.35,1.075,2.35,2.565,3.003,4.473c0.652,1.907,0.979,4.029,0.979,6.368c0,1.875-0.213,3.604-0.64,5.189
			c-0.428,1.586-0.95,2.836-1.571,3.753c-0.622,0.917-1.297,1.625-2.023,2.126c-0.727,0.5-1.49,0.854-2.291,1.06
			C847.701,419.277,846.99,419.38,846.369,419.38z M846.447,417.025c1.928,0,3.408-0.951,4.44-2.853
			c1.031-1.901,1.548-4.327,1.548-7.276c0-2.991-0.517-5.431-1.548-7.315c-1.032-1.886-2.508-2.829-4.425-2.829
			c-2.013,0-3.525,0.959-4.543,2.877c-1.017,1.917-1.523,4.371-1.523,7.363c0,2.19,0.283,4.09,0.854,5.695
			c0.568,1.606,1.34,2.73,2.314,3.373C844.538,416.704,845.5,417.025,846.447,417.025z"/>
	</g>
	<g>
		<circle cx="766.37" cy="459.326" r="9.325"/>
		<g>
			<path fill="#FFFFFF" d="M762.98,454.844h1.752l1.637,2.787l1.639-2.787h1.754l-2.511,4.287l2.749,4.678h-1.758l-1.867-3.18
				l-1.859,3.18h-1.774l2.752-4.686L762.98,454.844z"/>
		</g>
	</g>
	<g>
		<circle cx="826.37" cy="352.326" r="9.325"/>
		<g>
			<path fill="#FFFFFF" d="M822.936,347.844h1.839l1.604,3.111l1.584-3.111h1.842l-2.539,4.969v3.996h-1.774v-3.996L822.936,347.844
				z"/>
		</g>
	</g>
	<polyline fill="none" stroke="#333333" stroke-miterlimit="10" points="748.494,428.326 766.369,428.326 784.244,428.326 	"/>
	<line fill="none" stroke="#333333" stroke-miterlimit="10" x1="766.369" y1="447.326" x2="766.369" y2="428.326"/>
	<polyline fill="none" stroke="#333333" stroke-miterlimit="10" points="853.369,384.076 826.191,384.076 801.369,384.076 	"/>
	<line fill="none" stroke="#333333" stroke-miterlimit="10" x1="826.191" y1="365.076" x2="826.191" y2="384.076"/>
</g>
<circle fill="#333333" cx="259.692" cy="432.649" r="2.5"/>
<circle fill="#333333" cx="631.037" cy="446.894" r="2.5"/>
<circle fill="#333333" cx="635.075" cy="238.078" r="2.5"/>
<circle fill="#333333" cx="498.875" cy="100.037" r="2.5"/>
<circle fill="#333333" cx="286.143" cy="153.134" r="2.5"/>
<g>
	<path d="M734.01,454.926h5.232v0.844h-4.371v2.9h3.252v0.855h-3.252v3.428h4.793v0.854h-5.654V454.926L734.01,454.926z"/>
	<path d="M744.135,454.926h0.855v6.258c0,0.81-0.209,1.479-0.627,2.008c-0.418,0.528-0.996,0.794-1.734,0.794
		c-0.488,0-0.908-0.113-1.26-0.341c-0.353-0.227-0.662-0.553-0.933-0.979l0.738-0.416c0.387,0.586,0.873,0.879,1.459,0.879
		c0.418,0,0.772-0.165,1.063-0.495s0.437-0.812,0.437-1.45L744.135,454.926L744.135,454.926z"/>
	<path d="M747.51,454.926h5.232v0.844h-4.371v2.9h3.252v0.855h-3.252v3.428h4.793v0.854h-5.654V454.926L747.51,454.926z"/>
</g>
<g>
	<path d="M794.467,347.926h5.232v0.844h-4.371v2.9h3.252v0.855h-3.252v3.428h4.793v0.854h-5.654V347.926L794.467,347.926z"/>
	<path d="M804.592,347.926h0.855v6.258c0,0.81-0.209,1.479-0.627,2.008c-0.418,0.528-0.996,0.794-1.734,0.794
		c-0.488,0-0.908-0.113-1.26-0.341c-0.353-0.227-0.662-0.553-0.933-0.979l0.738-0.416c0.387,0.586,0.873,0.879,1.459,0.879
		c0.418,0,0.772-0.165,1.063-0.495s0.437-0.812,0.437-1.45L804.592,347.926L804.592,347.926z"/>
	<path d="M807.967,347.926h5.232v0.844h-4.371v2.9h3.252v0.855h-3.252v3.428h4.793v0.854h-5.654V347.926L807.967,347.926z"/>
</g>
</svg>
